<?xml version="1.0" encoding="utf-8"?>
<!-- Generator: Adobe Illustrator 18.1.1, SVG Export Plug-In . SVG Version: 6.00 Build 0)  -->
<svg version="1.1" id="Layer_1" xmlns="http://www.w3.org/2000/svg" xmlns:xlink="http://www.w3.org/1999/xlink" x="0px" y="0px"
	 viewBox="200 0 559.5 559.5" style="enable-background:new 200 0 559.5 559.5;" xml:space="preserve">
<style type="text/css">
	.st0{fill:#CC97F7;}
	.st1{fill:#21150B;}
</style>
<circle class="st0" cx="479.7" cy="279.7" r="279.7"/>
<circle class="st1" cx="480.3" cy="282.9" r="244.8"/>
<g>
	<path class="st0" d="M511,376.1h-44.8l-17.7-46.4h-81.8L350,376.1h-43.8L386,171.9h43.2L511,376.1z M434.9,295.4l-28.1-75.5
		l-27.6,75.5H434.9z"/>
	<path class="st0" d="M618.3,328.7l39.1,6.8c-5.2,14.1-13,25-24,32.8c-10.9,7.3-24.5,11.5-40.6,11.5c-25.5,0-44.8-8.3-57.3-25
		c-9.9-13.5-14.6-30.2-14.6-51.1c0-24.5,6.3-43.8,19.3-57.3c13-14.1,29.2-20.8,48.4-20.8c21.9,0,39.6,7.3,52.1,21.9
		c12.5,14.6,18.8,37,18.2,66.7H561c0.5,11.5,3.6,20.8,9.4,27.1c6.3,6.3,13.5,9.9,22.4,9.9c6.3,0,11.5-1.6,15.6-5.2
		C613.1,341.7,616.2,336.5,618.3,328.7z M620.4,289.6c-0.5-11.5-3.1-19.8-8.9-26c-5.7-5.7-12.5-8.9-20.3-8.9
		c-8.3,0-15.6,3.1-21.4,9.4c-5.7,6.3-8.3,14.6-8.3,25.5H620.4z"/>
</g>
</svg>
