<?xml version="1.0" encoding="utf-8"?>
<!-- Generator: Adobe Illustrator 18.1.1, SVG Export Plug-In . SVG Version: 6.00 Build 0)  -->
<svg version="1.1" id="Layer_1" xmlns="http://www.w3.org/2000/svg" xmlns:xlink="http://www.w3.org/1999/xlink" x="0px" y="0px"
	 viewBox="0 0 576 576" style="enable-background:new 0 0 576 576;" xml:space="preserve">
<style type="text/css">
	.st0{fill:#F1F2F2;}
</style>
<g>
	<g>
		<path class="st0" d="M145.4,239.8c3.8,1.3,6.9,3.6,9.3,6.9c1.9,2.7,3.2,5.7,3.9,8.8c0.7,3.2,1,6.2,1,9.1c0,7.3-1.5,13.4-4.4,18.5
			c-4,6.8-10.1,10.2-18.3,10.2h-23.6v-54.7h23.6C140.3,238.7,143.1,239.1,145.4,239.8z M124.4,248.1v35.7H135c5.4,0,9.2-2.7,11.3-8
			c1.2-2.9,1.7-6.4,1.7-10.4c0-5.6-0.9-9.8-2.6-12.8c-1.7-3-5.2-4.5-10.4-4.5H124.4z"/>
		<path class="st0" d="M208.7,248.3h-28.9v11.6h26.6v9.5h-26.6v14.1H210v9.8h-41.5v-54.7h40.1V248.3z"/>
		<path class="st0" d="M227.2,276.4c0.4,2.5,1,4.4,2.1,5.6c1.9,2.3,5.1,3.4,9.7,3.4c2.8,0,5-0.3,6.7-0.9c3.3-1.1,4.9-3.3,4.9-6.3
			c0-1.8-0.8-3.2-2.4-4.2c-1.6-1-4.1-1.8-7.6-2.6l-5.9-1.3c-5.8-1.3-9.8-2.7-12-4.2c-3.7-2.5-5.5-6.5-5.5-11.8c0-4.9,1.8-9,5.4-12.2
			c3.6-3.2,8.9-4.9,15.9-4.9c5.8,0,10.8,1.5,14.9,4.6c4.1,3.1,6.3,7.5,6.5,13.3h-11c-0.2-3.3-1.7-5.6-4.4-7
			c-1.8-0.9-4.1-1.4-6.8-1.4c-3,0-5.4,0.6-7.2,1.8c-1.8,1.2-2.7,2.8-2.7,5c0,2,0.9,3.4,2.7,4.4c1.1,0.6,3.6,1.4,7.3,2.3l9.6,2.3
			c4.2,1,7.4,2.3,9.5,4c3.3,2.6,4.9,6.3,4.9,11.2c0,5-1.9,9.1-5.8,12.5s-9.3,5-16.4,5c-7.2,0-12.9-1.6-17-4.9
			c-4.1-3.3-6.2-7.7-6.2-13.4H227.2z"/>
		<path class="st0" d="M280,293.3h-11.4v-54.7H280V293.3z"/>
		<path class="st0" d="M327.5,255.7c-0.9-3.7-3-6.3-6.3-7.8c-1.9-0.8-4-1.2-6.3-1.2c-4.4,0-8,1.7-10.9,5c-2.8,3.3-4.2,8.3-4.2,15
			c0,6.7,1.5,11.5,4.6,14.3c3.1,2.8,6.6,4.2,10.5,4.2c3.8,0,7-1.1,9.4-3.3c2.4-2.2,4-5.1,4.5-8.6h-12.7V264h22.8v29.4h-7.6l-1.2-6.8
			c-2.2,2.6-4.2,4.4-5.9,5.5c-3,1.8-6.7,2.8-11.1,2.8c-7.2,0-13.2-2.5-17.8-7.5c-4.8-5-7.2-11.9-7.2-20.7c0-8.9,2.4-15.9,7.3-21.3
			c4.9-5.3,11.3-8,19.3-8c7,0,12.5,1.8,16.8,5.3c4.2,3.5,6.6,7.9,7.3,13.2H327.5z"/>
		<path class="st0" d="M349.7,238.6h12l21.7,38.1v-38.1H394v54.7h-11.4l-22.3-38.8v38.8h-10.7V238.6z"/>
	</g>
</g>
<g>
</g>
<g>
</g>
<g>
</g>
<g>
</g>
<g>
</g>
<g>
</g>
</svg>
