<svg xmlns="http://www.w3.org/2000/svg" id="Layer_1" width="415" height="439.6" viewBox="0 0 415 439.6">
  <style>
    .st0{fill:#CAE98D;} .st1{fill:#FFFFFF;}
  </style>
  <circle cx="205.5" cy="219.4" r="186.3" class="st0"/>
  <path d="M197.8 194.1s-5.2-36.2 31.5-45c0 0 20.3-6 32.7 11.2 0 0 20.7-3.2 24.7-9.2 0 0 .8 10.4-15.1 20.7 0 0 12.3 2.8 19.9-4.4 0 0-11.9 15.1-17.9 19.5 0 0 2.4 123.1-135 108.7 0 0-21.1-5.6-29.5-13.1 0 0 32.7 1.6 54.2-16.3 0 0-25.9 4.8-35-27.1l16.3.8s-32.3-9.2-30.3-39l17.5 5.2s-28.7-19.5-11.5-50.2c-.1 0 38.5 39.4 77.5 38.2z" class="st1"/>
</svg>
