<?xml version="1.0" encoding="utf-8"?>
<!-- Generator: Adobe Illustrator 18.1.1, SVG Export Plug-In . SVG Version: 6.00 Build 0)  -->
<svg version="1.1" id="Layer_1" xmlns="http://www.w3.org/2000/svg" xmlns:xlink="http://www.w3.org/1999/xlink" x="0px" y="0px"
	 viewBox="200 0 559.5 559.5" style="enable-background:new 200 0 559.5 559.5;" xml:space="preserve">
<style type="text/css">
	.st0{fill:#FF5D9B;}
	.st1{fill:#21150B;}
	.st2{fill:none;}
	.st3{enable-background:new    ;}
</style>
<circle class="st0" cx="479.7" cy="279.7" r="279.7"/>
<circle class="st1" cx="480.3" cy="282.9" r="244.8"/>
<rect x="351.6" y="171.9" class="st2" width="267.8" height="225"/>
<g class="st3">
	<path class="st0" d="M371.1,376V172h41.2v204H371.1z"/>
	<path class="st0" d="M586.8,376h-36.3v-21.7c-6,8.4-13.2,14.7-21.4,18.9c-8.2,4.1-16.5,6.2-24.8,6.2c-17,0-31.5-6.8-43.6-20.5
		c-12.1-13.7-18.2-32.8-18.2-57.3c0-25,5.9-44.1,17.7-57.1c11.8-13,26.7-19.6,44.7-19.6c16.5,0,30.8,6.9,42.9,20.6V172h39.1V376z
		 M482.4,298.9c0,15.8,2.2,27.2,6.5,34.2c6.3,10.2,15.1,15.3,26.4,15.3c9,0,16.7-3.8,23-11.5c6.3-7.7,9.5-19.1,9.5-34.3
		c0-17-3.1-29.2-9.2-36.7c-6.1-7.5-14-11.2-23.5-11.2c-9.3,0-17,3.7-23.3,11.1C485.5,273.2,482.4,284.3,482.4,298.9z"/>
</g>
</svg>
