<svg xmlns="http://www.w3.org/2000/svg" viewBox="200 0 559.5 559.5" enable-background="new 200 0 559.5 559.5"><style type="text/css">.st0{fill:#FF5D9B;} .st1{fill:#21150B;} .st2{fill:none;} .st3{enable-background:new ;}</style><circle class="st0" cx="479.7" cy="279.7" r="279.7"/><circle class="st1" cx="480.3" cy="282.9" r="244.8"/><path class="st2" d="M351.6 171.9h267.8v225h-267.8z"/><g class="st3"><path class="st0" d="M371.1 376v-204h41.2v204h-41.2zM586.8 376h-36.3v-21.7c-6 8.4-13.2 14.7-21.4 18.9-8.2 4.1-16.5 6.2-24.8 6.2-17 0-31.5-6.8-43.6-20.5-12.1-13.7-18.2-32.8-18.2-57.3 0-25 5.9-44.1 17.7-57.1 11.8-13 26.7-19.6 44.7-19.6 16.5 0 30.8 6.9 42.9 20.6v-73.5h39.1v204zm-104.4-77.1c0 15.8 2.2 27.2 6.5 34.2 6.3 10.2 15.1 15.3 26.4 15.3 9 0 16.7-3.8 23-11.5 6.3-7.7 9.5-19.1 9.5-34.3 0-17-3.1-29.2-9.2-36.7-6.1-7.5-14-11.2-23.5-11.2-9.3 0-17 3.7-23.3 11.1-6.3 7.4-9.4 18.5-9.4 33.1z"/></g></svg>