<?xml version="1.0" encoding="utf-8"?>
<!-- Generator: Adobe Illustrator 18.1.1, SVG Export Plug-In . SVG Version: 6.00 Build 0)  -->
<svg version="1.1" id="Layer_1" xmlns="http://www.w3.org/2000/svg" xmlns:xlink="http://www.w3.org/1999/xlink" x="0px" y="0px"
	 viewBox="96.1 192.8 325.1 166.3" style="enable-background:new 96.1 192.8 325.1 166.3;" xml:space="preserve">
<style type="text/css">
	.st0{fill:#2CADBE;}
	.st1{fill:#FFFFFF;}
</style>
<path class="st0" d="M1504.4,143.6"/>
<path class="st0" d="M393.6,346.6H127.5c-6.6,0-12-5.4-12-12V218.4c0-6.6,5.4-12,12-12h266.1c6.6,0,12,5.4,12,12v116.2
	C405.6,341.2,400.2,346.6,393.6,346.6z"/>
<g>
	<path class="st1" d="M154.9,255.8h6.5v45.1H183v5.5h-28.1V255.8z"/>
	<path class="st1" d="M230.6,280.6c0,17.4-10.6,26.6-23.5,26.6c-13.4,0-22.7-10.4-22.7-25.7c0-16.1,10-26.6,23.5-26.6
		C221.7,255,230.6,265.6,230.6,280.6z M191.4,281.4c0,10.8,5.9,20.5,16.1,20.5c10.4,0,16.2-9.5,16.2-21c0-10.1-5.3-20.6-16.1-20.6
		C196.8,260.3,191.4,270.3,191.4,281.4z"/>
	<path class="st1" d="M277.5,304.1c-2.9,1.1-8.7,2.8-15.5,2.8c-7.7,0-14-2-18.9-6.7c-4.4-4.2-7.1-11-7.1-18.8
		c0.1-15.1,10.4-26.1,27.4-26.1c5.9,0,10.4,1.3,12.6,2.3l-1.6,5.3c-2.7-1.2-6.1-2.2-11.2-2.2c-12.3,0-20.3,7.7-20.3,20.3
		c0,12.8,7.7,20.4,19.5,20.4c4.3,0,7.2-0.6,8.7-1.4v-15.1h-10.3v-5.3h16.7V304.1z"/>
	<path class="st1" d="M330.7,280.6c0,17.4-10.6,26.6-23.5,26.6c-13.4,0-22.7-10.4-22.7-25.7c0-16.1,10-26.6,23.5-26.6
		C321.8,255,330.7,265.6,330.7,280.6z M291.5,281.4c0,10.8,5.9,20.5,16.1,20.5c10.4,0,16.2-9.5,16.2-21c0-10.1-5.3-20.6-16.1-20.6
		C296.9,260.3,291.5,270.3,291.5,281.4z"/>
	<path class="st1" d="M338.3,298.4c2.9,1.8,7.2,3.3,11.7,3.3c6.7,0,10.6-3.5,10.6-8.6c0-4.7-2.7-7.4-9.5-10.1
		c-8.3-2.9-13.4-7.2-13.4-14.3c0-7.9,6.5-13.7,16.4-13.7c5.2,0,8.9,1.2,11.2,2.5l-1.8,5.3c-1.7-0.9-5-2.4-9.6-2.4
		c-6.9,0-9.5,4.1-9.5,7.6c0,4.7,3.1,7.1,10.1,9.8c8.6,3.3,12.9,7.4,12.9,14.9c0,7.8-5.8,14.6-17.7,14.6c-4.9,0-10.2-1.4-12.9-3.2
		L338.3,298.4z"/>
</g>
</svg>
