<?xml version="1.0" encoding="utf-8"?>
<!-- Generator: Adobe Illustrator 18.1.1, SVG Export Plug-In . SVG Version: 6.00 Build 0)  -->
<svg version="1.1" id="Layer_1" xmlns="http://www.w3.org/2000/svg" xmlns:xlink="http://www.w3.org/1999/xlink" x="0px" y="0px"
	 viewBox="0 0 612 792" enable-background="new 0 0 612 792" xml:space="preserve">
<circle fill="#FFFFFF" stroke="#EF4044" stroke-width="10" stroke-miterlimit="10" cx="319.9" cy="393.7" r="256.5"/>
<path fill="#EF4044" stroke="#EF4044" stroke-miterlimit="10" d="M307.5,396.8c-44.8,0-80.4-35.5-80.4-80.4s35.5-80.4,80.4-80.4
	c0,0,32.5,0,58.7,18.5l-7.7,23.2c0,0-6.2-10.8-29.4-15.5c-12.4-3.1-26.3-1.5-37.1,3.1c-15.5,6.2-37.1,21.6-38.6,52.5
	c-1.5,52.5,60.3,61.8,60.3,61.8L307.5,396.8z"/>
<path fill="#EF4044" stroke="#EF4044" stroke-miterlimit="10" d="M330.7,380.5c44.8,0,80.4,35.5,80.4,80.4s-35.5,81.9-80.4,81.9
	c0,0-32.5,0-58.7-18.5l7.7-23.2c0,0,6.2,10.8,29.4,15.5c12.4,3.1,26.3,1.5,37.1-3.1c15.5-6.2,37.1-21.6,38.6-52.5
	c1.5-52.5-60.3-61.8-60.3-61.8L330.7,380.5z"/>
</svg>
