<?xml version="1.0" encoding="utf-8"?>
<!-- Generator: Adobe Illustrator 18.1.1, SVG Export Plug-In . SVG Version: 6.00 Build 0)  -->
<svg version="1.1" id="Layer_1" xmlns="http://www.w3.org/2000/svg" xmlns:xlink="http://www.w3.org/1999/xlink" x="0px" y="0px"
	 viewBox="0 0 39.6 38.5" style="enable-background:new 0 0 39.6 38.5;" xml:space="preserve">
<style type="text/css">
	.st0{fill:#FFFFFF;stroke:#E0625B;stroke-miterlimit:10;}
	.st1{fill:#E0625B;stroke:#E0625B;stroke-miterlimit:10;}
</style>
<circle class="st0" cx="20.7" cy="19.1" r="16.6"/>
<path class="st1" d="M19.9,19.3c-2.9,0-5.2-2.3-5.2-5.2s2.3-5.2,5.2-5.2c0,0,2.1,0,3.8,1.2l-0.5,1.5c0,0-0.4-0.7-1.9-1
	c-0.8-0.2-1.7-0.1-2.4,0.2c-1,0.4-2.4,1.4-2.5,3.4c-0.1,3.4,3.9,4,3.9,4L19.9,19.3z"/>
<path class="st1" d="M22.8,18.5c2.9,0,5.2,2.3,5.2,5.2S25.7,29,22.8,29c0,0-2.1,0-3.8-1.2l0.5-1.5c0,0,0.4,0.7,1.9,1
	c0.8,0.2,1.7,0.1,2.4-0.2c1-0.4,2.4-1.4,2.5-3.4c0.1-3.4-3.9-4-3.9-4L22.8,18.5z"/>
<g>
</g>
<g>
</g>
<g>
</g>
<g>
</g>
<g>
</g>
<g>
</g>
</svg>
