<?xml version="1.0" encoding="utf-8"?>
<!-- Generator: Adobe Illustrator 18.1.1, SVG Export Plug-In . SVG Version: 6.00 Build 0)  -->
<svg version="1.1" id="Layer_1" xmlns="http://www.w3.org/2000/svg" xmlns:xlink="http://www.w3.org/1999/xlink" x="0px" y="0px"
	 viewBox="0 0 94.3 185" style="enable-background:new 0 0 94.3 185;" xml:space="preserve">
<style type="text/css">
	.st0{fill:#322300;stroke:#000000;stroke-width:1.0078;stroke-miterlimit:10;}
	.st1{fill:#EE3737;stroke:#000000;stroke-width:1.09;stroke-miterlimit:10;}
	.st2{fill:#ECC19C;stroke:#000000;stroke-width:1.09;stroke-miterlimit:10;}
	.st3{fill:#F5E0CD;stroke:#000000;stroke-width:1.09;stroke-miterlimit:10;}
	.st4{fill:#B5917C;stroke:#000000;stroke-width:1.09;stroke-miterlimit:10;}
	.st5{fill:#ECC19C;stroke:#000000;stroke-width:1.0296;stroke-miterlimit:10;}
	.st6{stroke:#231F20;stroke-width:0.7112;stroke-miterlimit:10;}
	.st7{fill:none;stroke:#000000;stroke-width:1.09;stroke-miterlimit:10;}
</style>
<path class="st0" d="M45.9,11.1c0,0-17.7-1-28.2,17.8s-3.1,67.2-3.1,67.2H85c0,0,9.3-56.6-7.8-74.7c-0.5-0.5-1-1-1.5-1.5
	C73,17.1,62.2,8.6,45.9,11.1z"/>
<g>
	<path class="st1" d="M58.3,78.3c0,0,18.6,4.8,17.7,34.8l-6.9,1.1c0,0-1.9-21.7-13.2-34.4L58.3,78.3z"/>
	<path class="st2" d="M75.8,113l-6.1,0.8c0,0-4.1,7.1,3.5,8.5C80.9,123.9,75.8,113,75.8,113z"/>
	<path class="st1" d="M28.6,122.1l36.7,0c0,0,7.5-40.8-13.1-42.9C52.2,79.2,23.3,70.8,28.6,122.1z"/>
	<circle class="st2" cx="49.4" cy="48.4" r="32.4"/>
	<path class="st3" d="M49.3,80.7c0,0-29.6,0-32.2-32c-0.3-3.7,0.2-7.4,1.6-10.9c0,0,6.2-20.1,30.7-21.8L49.3,80.7z"/>
	<circle cx="38.4" cy="49.5" r="2.8"/>
	<circle cx="60.4" cy="49.5" r="2.8"/>
	<path class="st4" d="M51,46.7c0,0,0.4-10.1-3.7-6.2v12.6c0,0,1.7,3,6.3,0.7c1.2-0.6,2.1-1.7,2.2-3.1C56,49.2,55.2,47.4,51,46.7z"/>
	<path class="st2" d="M17,46.5l1.2,7.2c0,0-6.5,2.8-6.2-4.1C12,49.6,12.9,44.9,17,46.5z"/>
	<path class="st3" d="M81.8,45.1l0.2,7.3c0,0,6.5,1.3,4.9-5.3C86.9,47.1,85.3,42.7,81.8,45.1z"/>
	<path class="st5" d="M20,112l5.4,1.3c0,0,3.2,7.3-3.7,8.3S20,112,20,112z"/>
	<path class="st1" d="M37.8,78.6c0,0-16.9,3.4-17.9,33.4l6.1,1.6c0,0,3.1-21.5,14-33.4L37.8,78.6z"/>
	<polygon class="st6" points="28.6,122.1 65.3,122.1 64.5,171.9 75.9,171.9 75.9,176.8 60.9,176.8 56.2,129.4 38.2,129 36.9,176.8 
		23.7,176.8 23.7,171.3 33.2,171.9 	"/>
</g>
<path class="st7" d="M35.6,60.4c0,0,12.3,15.4,27.7,0"/>
<path class="st0" d="M51.5,16.1c0,0-13.1,27-33.4,37.3c0,0-5.9-17.8,14.4-32.3C32.6,21.2,43.2,14.5,51.5,16.1z"/>
<g>
</g>
<g>
</g>
<g>
</g>
<g>
</g>
<g>
</g>
<g>
</g>
</svg>
