<?xml version="1.0" encoding="utf-8"?>
<!-- Generator: Adobe Illustrator 18.1.1, SVG Export Plug-In . SVG Version: 6.00 Build 0)  -->
<svg version="1.1" id="Layer_1" xmlns="http://www.w3.org/2000/svg" xmlns:xlink="http://www.w3.org/1999/xlink" x="0px" y="0px"
	 viewBox="0 0 612 792" style="enable-background:new 0 0 612 792;" xml:space="preserve">
<style type="text/css">
	.st0{fill:#322300;stroke:#000000;stroke-width:1.0078;stroke-miterlimit:10;}
	.st1{fill:#2EC0D3;stroke:#000000;stroke-width:1.1954;stroke-miterlimit:10;}
	.st2{fill:#2EC0D3;stroke:#000000;stroke-width:1.09;stroke-miterlimit:10;}
	.st3{fill:#ECC19C;stroke:#000000;stroke-width:1.09;stroke-miterlimit:10;}
	.st4{fill:#ECC19C;stroke:#000000;stroke-width:1.0799;stroke-miterlimit:10;}
	.st5{fill:#F5E0CD;stroke:#000000;stroke-width:1.09;stroke-miterlimit:10;}
	.st6{fill:#B5917C;stroke:#000000;stroke-width:1.09;stroke-miterlimit:10;}
	.st7{fill:#ECC19C;stroke:#000000;stroke-width:1.0296;stroke-miterlimit:10;}
	.st8{stroke:#231F20;stroke-width:0.7112;stroke-miterlimit:10;}
	.st9{fill:none;stroke:#000000;stroke-width:1.09;stroke-miterlimit:10;}
	.st10{fill:#322300;stroke:#000000;stroke-width:1.0414;stroke-miterlimit:10;}
</style>
<path class="st0" d="M300.6,47.5c0,0-75.8-4.3-120.7,76.2s-13.3,287.7-13.3,287.7H468c0,0,39.8-242.3-33.4-319.8
	c-2.1-2.1-4.3-4.3-6.4-6.4C416.7,73.2,370.4,36.8,300.6,47.5z"/>
<g>
	<path class="st1" d="M277.8,330.1c0,0-83.5,15.2-88.4,149.1l30.1,7.1c0,0,15.3-96,69.1-149.1L277.8,330.1z"/>
	<path class="st2" d="M353.7,335.2c0,0,79.6,20.5,75.8,149l-29.5,4.7c0,0-8.1-92.9-56.5-147.3L353.7,335.2z"/>
	<path class="st3" d="M428.7,483.8l-26.1,3.4c0,0-17.6,30.4,15,36.4C450.5,530.4,428.7,483.8,428.7,483.8z"/>
	<path class="st2" d="M226.6,522.7h157.1c0,0,32.1-174.7-56.1-183.7C327.6,339.1,203.9,303.1,226.6,522.7z"/>
	<ellipse class="st4" cx="318.2" cy="207.2" rx="136.1" ry="138.7"/>
	<path class="st5" d="M315.2,345.5c0,0-126.7,0-137.9-137c-1.3-15.8,0.9-31.7,6.8-46.7c0,0,26.5-86,131.4-93.3L315.2,345.5z"/>
	<circle cx="268.5" cy="211.9" r="12"/>
	<circle cx="362.7" cy="211.9" r="12"/>
	<path class="st6" d="M322.5,199.9c0,0,1.7-43.2-15.8-26.5v53.9c0,0,7.3,12.8,27,3c5.1-2.6,9-7.3,9.4-13.3
		C343.9,210.6,340.5,202.9,322.5,199.9z"/>
	<path class="st3" d="M176.9,199.1l5.1,30.8c0,0-27.8,12-26.5-17.6C155.5,212.3,159.4,192.2,176.9,199.1z"/>
	<path class="st5" d="M454.3,193.1l0.9,31.3c0,0,27.8,5.6,21-22.7C476.2,201.6,469.3,182.8,454.3,193.1z"/>
	<path class="st7" d="M189.8,479.5l23.1,5.6c0,0,13.7,31.3-15.8,35.5C167.5,524.9,189.8,479.5,189.8,479.5z"/>
	<polygon class="st8" points="226.6,522.7 383.7,522.7 380.3,735.9 429.1,735.9 429.1,756.9 364.9,756.9 344.7,554 267.7,552.3 
		262.1,756.9 205.6,756.9 205.6,733.3 246.3,735.9 	"/>
</g>
<path class="st9" d="M256.6,258.6c0,0,52.7,65.9,118.6,0"/>
<path class="st10" d="M322,67.5c0,0-58,119.3-147.9,164.8c0,0-26.1-78.7,63.8-142.7C238.3,90,285.3,60.4,322,67.5z"/>
</svg>
