<?xml version="1.0" encoding="utf-8"?>
<!-- Generator: Adobe Illustrator 18.1.1, SVG Export Plug-In . SVG Version: 6.00 Build 0)  -->
<svg version="1.1" id="Layer_1" xmlns="http://www.w3.org/2000/svg" xmlns:xlink="http://www.w3.org/1999/xlink" x="0px" y="0px"
	 viewBox="0 0 792 1224" style="enable-background:new 0 0 792 1224;" xml:space="preserve">
<style type="text/css">
	.st0{fill:#818889;}
	.st1{fill:#2CADBE;}
	.st2{fill:#444444;}
</style>
<path class="st0" d="M279.9,328.5h209.4c0,0,23-5.8,32.6,30.8c9.6,36.5,115.3,307.2,115.3,307.2s-8.5,22.6-44.1,19.4L491.2,418.8
	h-15.4l96,297.8h-98l-1.9,334.3c0,0-34.6,44.1-73,0V722.3h-33.3l-1.4,322.8c0,0-25,48-74.9,9.6V718.4H187.6l103.8-297.8l-13.5-1.9
	L171.7,692.2c0,0-21.5,6.9-47.5-14.8l122.9-327.9C247.2,349.6,264.5,328.5,279.9,328.5L279.9,328.5z"/>
<ellipse class="st0" cx="382.7" cy="232.3" rx="75.8" ry="78.8"/>
<path class="st1" d="M1946.9,285.4"/>
<path class="st2" d="M398.2,328.5h92c0,0,23-5.8,32.6,30.8l115.4,307.1c0,0-8.5,22.6-44.1,19.4L492.3,418.7h-15.4l96,297.8h-98
	l-1.9,334.3c0,0-34.6,44.1-73,0V722.3h-19.4V328.5L398.2,328.5L398.2,328.5z M382.7,153.6c41.9,0,75.8,35.3,75.8,78.8
	s-34,78.8-75.8,78.8"/>
</svg>
