<svg xmlns="http://www.w3.org/2000/svg" viewBox="0 0 792 1224" enable-background="new 0 0 792 1224"><style type="text/css">.st0{fill:#818889;} .st1{fill:#2CADBE;} .st2{fill:#444444;}</style><path class="st0" d="M279.9 328.5h209.4s23-5.8 32.6 30.8c9.6 36.5 115.3 307.2 115.3 307.2s-8.5 22.6-44.1 19.4l-101.9-267.1h-15.4l96 297.8h-98l-1.9 334.3s-34.6 44.1-73 0v-328.6h-33.3l-1.4 322.8s-25 48-74.9 9.6v-336.3h-101.7l103.8-297.8-13.5-1.9-106.2 273.5s-21.5 6.9-47.5-14.8l122.9-327.9c.1.1 17.4-21 32.8-21z"/><ellipse class="st0" cx="382.7" cy="232.3" rx="75.8" ry="78.8"/><path class="st1" d="M1946.9 285.4"/><path class="st2" d="M398.2 328.5h92s23-5.8 32.6 30.8l115.4 307.1s-8.5 22.6-44.1 19.4l-101.8-267.1h-15.4l96 297.8h-98l-1.9 334.3s-34.6 44.1-73 0v-328.5h-19.4v-393.8h17.6zm-15.5-174.9c41.9 0 75.8 35.3 75.8 78.8s-34 78.8-75.8 78.8"/></svg>