<?xml version="1.0" encoding="utf-8"?>
<!-- Generator: Adobe Illustrator 18.1.1, SVG Export Plug-In . SVG Version: 6.00 Build 0)  -->
<svg version="1.1" id="Layer_1" xmlns="http://www.w3.org/2000/svg" xmlns:xlink="http://www.w3.org/1999/xlink" x="0px" y="0px"
	 viewBox="0 0 79 36.6" style="enable-background:new 0 0 79 36.6;" xml:space="preserve">
<style type="text/css">
	.st0{fill:#5F6062;}
</style>
<path class="st0" d="M59.9,9.9H19.1c-1.4,0-2.5-1.1-2.5-2.5v0c0-1.4,1.1-2.5,2.5-2.5h40.7c1.4,0,2.5,1.1,2.5,2.5v0
	C62.3,8.8,61.2,9.9,59.9,9.9z"/>
<path class="st0" d="M59.9,18.9H19.1c-1.4,0-2.5-1.1-2.5-2.5v0c0-1.4,1.1-2.5,2.5-2.5h40.7c1.4,0,2.5,1.1,2.5,2.5v0
	C62.3,17.8,61.2,18.9,59.9,18.9z"/>
<path class="st0" d="M59.9,27.9H19.1c-1.4,0-2.5-1.1-2.5-2.5v0c0-1.4,1.1-2.5,2.5-2.5h40.7c1.4,0,2.5,1.1,2.5,2.5v0
	C62.3,26.8,61.2,27.9,59.9,27.9z"/>
<g>
</g>
<g>
</g>
<g>
</g>
<g>
</g>
<g>
</g>
<g>
</g>
</svg>
