<svg xmlns="http://www.w3.org/2000/svg" viewBox="200 0 559.5 559.5" enable-background="new 200 0 559.5 559.5"><style type="text/css">.st0{fill:#00C7F2;} .st1{fill:#21150B;} .st2{fill:none;} .st3{enable-background:new ;}</style><circle class="st0" cx="479.7" cy="279.7" r="279.7"/><circle class="st1" cx="480.3" cy="282.9" r="244.8"/><path class="st2" d="M306.3 171.9h363.1v265.7h-363.1z"/><g class="st3"><path class="st0" d="M327 376v-204h66.1c25 0 41.4 1 49 3.1 11.7 3.1 21.5 9.7 29.4 20 7.9 10.3 11.8 23.5 11.8 39.7 0 12.5-2.3 23.1-6.8 31.6s-10.3 15.2-17.3 20.1c-7 4.9-14.1 8.1-21.4 9.7-9.8 1.9-24.1 2.9-42.7 2.9h-26.9v77h-41.2zm41.2-169.5v57.9h22.5c16.2 0 27.1-1.1 32.6-3.2s9.8-5.5 12.9-10c3.1-4.5 4.7-9.8 4.7-15.9 0-7.4-2.2-13.5-6.5-18.4-4.4-4.8-9.9-7.8-16.6-9-4.9-.9-14.8-1.4-29.6-1.4h-20zM503.1 333.8l39.2-6c1.7 7.6 5.1 13.4 10.2 17.3 5.1 3.9 12.2 5.9 21.4 5.9 10.1 0 17.7-1.9 22.8-5.6 3.4-2.6 5.1-6.1 5.1-10.4 0-3-.9-5.4-2.8-7.4-1.9-1.9-6.3-3.6-13.1-5.1-31.5-7-51.5-13.3-60-19.1-11.7-8-17.5-19.1-17.5-33.3 0-12.8 5.1-23.6 15.2-32.3 10.1-8.7 25.8-13.1 47-13.1 20.2 0 35.3 3.3 45.1 9.9 9.8 6.6 16.6 16.3 20.3 29.2l-36.9 6.8c-1.6-5.8-4.6-10.2-9-13.2-4.4-3.1-10.7-4.6-18.9-4.6-10.3 0-17.7 1.4-22.1 4.3-3 2-4.5 4.7-4.5 7.9 0 2.8 1.3 5.1 3.9 7.1 3.5 2.6 15.7 6.3 36.5 11s35.4 10.5 43.6 17.4c8.2 7 12.2 16.7 12.2 29.1 0 13.5-5.7 25.2-17 34.9s-28.1 14.6-50.2 14.6c-20.1 0-36.1-4.1-47.8-12.2-11.4-8-19.1-19.1-22.7-33.1z"/></g></svg>