<?xml version="1.0" encoding="utf-8"?>
<!-- Generator: Adobe Illustrator 18.1.1, SVG Export Plug-In . SVG Version: 6.00 Build 0)  -->
<svg version="1.1" id="Layer_1" xmlns="http://www.w3.org/2000/svg" xmlns:xlink="http://www.w3.org/1999/xlink" x="0px" y="0px"
	 viewBox="200 0 559.5 559.5" style="enable-background:new 200 0 559.5 559.5;" xml:space="preserve">
<style type="text/css">
	.st0{fill:#00C7F2;}
	.st1{fill:#21150B;}
	.st2{fill:none;}
	.st3{enable-background:new    ;}
</style>
<circle class="st0" cx="479.7" cy="279.7" r="279.7"/>
<circle class="st1" cx="480.3" cy="282.9" r="244.8"/>
<rect x="306.3" y="171.9" class="st2" width="363.1" height="265.7"/>
<g class="st3">
	<path class="st0" d="M327,376V172h66.1c25,0,41.4,1,49,3.1c11.7,3.1,21.5,9.7,29.4,20c7.9,10.3,11.8,23.5,11.8,39.7
		c0,12.5-2.3,23.1-6.8,31.6c-4.5,8.5-10.3,15.2-17.3,20.1c-7,4.9-14.1,8.1-21.4,9.7c-9.8,1.9-24.1,2.9-42.7,2.9h-26.9v77H327z
		 M368.2,206.5v57.9h22.5c16.2,0,27.1-1.1,32.6-3.2c5.5-2.1,9.8-5.5,12.9-10c3.1-4.5,4.7-9.8,4.7-15.9c0-7.4-2.2-13.5-6.5-18.4
		c-4.4-4.8-9.9-7.8-16.6-9c-4.9-0.9-14.8-1.4-29.6-1.4H368.2z"/>
	<path class="st0" d="M503.1,333.8l39.2-6c1.7,7.6,5.1,13.4,10.2,17.3c5.1,3.9,12.2,5.9,21.4,5.9c10.1,0,17.7-1.9,22.8-5.6
		c3.4-2.6,5.1-6.1,5.1-10.4c0-3-0.9-5.4-2.8-7.4c-1.9-1.9-6.3-3.6-13.1-5.1c-31.5-7-51.5-13.3-60-19.1c-11.7-8-17.5-19.1-17.5-33.3
		c0-12.8,5.1-23.6,15.2-32.3c10.1-8.7,25.8-13.1,47-13.1c20.2,0,35.3,3.3,45.1,9.9c9.8,6.6,16.6,16.3,20.3,29.2l-36.9,6.8
		c-1.6-5.8-4.6-10.2-9-13.2c-4.4-3.1-10.7-4.6-18.9-4.6c-10.3,0-17.7,1.4-22.1,4.3c-3,2-4.5,4.7-4.5,7.9c0,2.8,1.3,5.1,3.9,7.1
		c3.5,2.6,15.7,6.3,36.5,11c20.8,4.7,35.4,10.5,43.6,17.4c8.2,7,12.2,16.7,12.2,29.1c0,13.5-5.7,25.2-17,34.9
		c-11.3,9.7-28.1,14.6-50.2,14.6c-20.1,0-36.1-4.1-47.8-12.2C514.4,358.9,506.7,347.8,503.1,333.8z"/>
</g>
</svg>
