<?xml version="1.0" encoding="utf-8"?>
<!-- Generator: Adobe Illustrator 18.1.1, SVG Export Plug-In . SVG Version: 6.00 Build 0)  -->
<svg version="1.1" id="Layer_1" xmlns="http://www.w3.org/2000/svg" xmlns:xlink="http://www.w3.org/1999/xlink" x="0px" y="0px"
	 viewBox="0 0 221 279.4" style="enable-background:new 0 0 221 279.4;" xml:space="preserve">
<style type="text/css">
	.st0{fill:#E0625B;stroke:#FFFFFF;stroke-width:2;stroke-miterlimit:10;}
	.st1{fill:none;}
	.st2{fill:#FFFFFF;}
</style>
<rect x="85.5" y="28.1" class="st0" width="66.1" height="45.5"/>
<rect x="78.9" y="37.9" class="st0" width="6.6" height="26.5"/>
<rect x="151.8" y="38.5" class="st0" width="6.6" height="26.5"/>
<path class="st0" d="M78.9,41.7c0,0-10.5-0.9-10.4,10.1c0.1,10,10.4,10.6,10.4,10.6V41.7z"/>
<path class="st0" d="M158.5,62.1c0,0,10.5,0.9,10.4-10.1c-0.1-10-10.4-10.6-10.4-10.6V62.1z"/>
<path class="st0" d="M133.5,60.8h-30c-6.6,0-12-5.4-12-12v-1.1c0-6.6,5.4-12,12-12h30c6.6,0,12,5.4,12,12v1.1
	C145.5,55.4,140.1,60.8,133.5,60.8z"/>
<circle class="st0" cx="102.7" cy="48.5" r="6.4"/>
<circle class="st0" cx="133.5" cy="48.4" r="6.4"/>
<path class="st0" d="M104.9,63.9h25.9c1.8,0,3.2,1.4,3.2,3.2v0c0,1.8-1.4,3.2-3.2,3.2h-25.9c-1.8,0-3.2-1.4-3.2-3.2v0
	C101.6,65.3,103.1,63.9,104.9,63.9z"/>
<line class="st0" x1="106.5" y1="63.7" x2="106.5" y2="70.6"/>
<line class="st0" x1="112.7" y1="63.9" x2="112.7" y2="70.6"/>
<line class="st0" x1="118.5" y1="63.6" x2="118.5" y2="70.7"/>
<line class="st0" x1="124.1" y1="64.2" x2="124.1" y2="70.3"/>
<line class="st0" x1="129.2" y1="64.1" x2="129.2" y2="70.4"/>
<rect x="99.7" y="21.3" class="st0" width="40.3" height="6.6"/>
<rect x="74.1" y="78.3" class="st0" width="89" height="69.2"/>
<rect x="102.4" y="73.4" class="st0" width="32.9" height="4.8"/>
<rect x="67.7" y="82.4" class="st0" width="6.4" height="22.2"/>
<rect x="163.1" y="82.1" class="st0" width="6.9" height="22.5"/>
<rect x="78.6" y="147.3" class="st0" width="79" height="10"/>
<rect x="83.4" y="157.5" class="st0" width="17.7" height="9.3"/>
<rect x="78.9" y="166.8" class="st0" width="26.8" height="24.3"/>
<rect x="61.4" y="246.3" class="st0" width="54.5" height="8"/>
<polygon class="st0" points="75.8,191 109.6,191 113.6,246 66.9,246 "/>
<circle class="st0" cx="92.4" cy="190.5" r="8.4"/>
<rect x="136.2" y="157.7" class="st0" width="17.7" height="9.3"/>
<rect x="131.7" y="167" class="st0" width="26.8" height="24.3"/>
<rect x="118.5" y="246.3" class="st0" width="54.5" height="8"/>
<polygon class="st0" points="129.2,191.2 163,191.2 167.1,246.2 120.3,246.2 "/>
<circle class="st0" cx="145.1" cy="190.7" r="8.4"/>
<circle class="st0" cx="92.1" cy="131.6" r="7"/>
<circle class="st0" cx="108.9" cy="131.7" r="7"/>
<circle class="st0" cx="127" cy="131.7" r="7"/>
<circle class="st0" cx="144.7" cy="131.7" r="7"/>
<rect x="88.5" y="89.7" class="st0" width="60.2" height="29.5"/>
<path class="st0" d="M67.4,85.8l0.3,17c0,0-23.7-3.5-20,35.4l-14.4,3.2C33.2,141.4,16.1,96.7,67.4,85.8z"/>
<path class="st0" d="M170.5,85.4l-0.3,18.8c0,0,23.1-3.9,19,39.8l13.4,2.1C202.6,146.1,220.4,97.5,170.5,85.4z"/>
<path class="st0" d="M29.7,164.7c0,0.4-10.7-18.4,9.1-24.5c18.6-5.8,22.9,15.9,22.9,15.9l-6.7,0.3c0,0-0.6-14.1-13.5-10.6
	c-12.8,3.5-5.8,16.3-5.8,16.3L29.7,164.7z"/>
<path class="st0" d="M174.7,165c-0.2,0.4-3.9-20.9,16.8-20c19.5,0.8,16.3,22.7,16.3,22.7l-6.4-2c0,0,4.1-13.5-9.1-14.5
	s-10.9,13.4-10.9,13.4L174.7,165z"/>
<g>
	<rect x="107.6" y="94.6" class="st1" width="19.1" height="20.4"/>
	<path class="st2" d="M113.5,98.9v-4.3h2.2v0.9h-1.2v0.7h1v0.9h-1v0.8h1.2v0.9H113.5z"/>
	<path class="st2" d="M118.6,98.9h-1l-0.1-0.5H117l-0.1,0.5h-1l0.7-4.3h1.2L118.6,98.9z M117,97.5h0.5l-0.3-1.8h0L117,97.5z"/>
	<path class="st2" d="M120.2,95.4v3.4h-1v-3.4h-0.8v-0.9h2.6v0.9H120.2z"/>
	<path class="st2" d="M109.2,101.8h1c1.1,0,1.5,0.3,1.5,2.2c0,1.6-0.2,2.2-1.5,2.2h-1V101.8z M110.2,105.2c0.5,0,0.5-0.2,0.5-0.9
		v-0.8c0-0.8,0-0.9-0.5-0.9V105.2z"/>
	<path class="st2" d="M112.2,106.1v-4.3h2.2v0.9h-1.2v0.7h1v0.9h-1v0.8h1.2v0.9H112.2z"/>
	<path class="st2" d="M116.5,103.1c0-0.5-0.1-0.6-0.4-0.6c-0.2,0-0.3,0.1-0.3,0.3c0,0.5,1.6,0.9,1.6,2.1c0,0.9-0.5,1.2-1.4,1.2
		c-1.1,0-1.3-0.7-1.3-1.5h0.9v0.2c0,0.3,0.2,0.5,0.4,0.5c0.2,0,0.3-0.1,0.3-0.3c0-0.6-1.6-1-1.6-2.2c0-0.7,0.6-1.1,1.2-1.1
		c0.8,0,1.3,0.5,1.3,1.2v0.2H116.5z"/>
	<path class="st2" d="M118,106.1v-4.3h1v4.3H118z"/>
	<path class="st2" d="M120.5,104.9c0,0.3,0.1,0.4,0.3,0.4s0.3-0.1,0.3-0.4v-0.4h-0.3v-0.8h1.3v2.4h-0.5l-0.1-0.2
		c-0.2,0.2-0.4,0.3-0.7,0.3c-1,0-1.2-0.5-1.2-2.2c0-1.6,0.3-2.2,1.3-2.2c0.5,0,1,0.2,1.2,0.8c0.1,0.2,0.1,0.4,0.1,0.7h-1v-0.3
		c0-0.3-0.1-0.4-0.3-0.4s-0.3,0.1-0.3,0.4V104.9z"/>
	<path class="st2" d="M122.6,106.1v-4.3h1l0.7,1.9h0v-1.9h0.9v4.3h-0.9l-0.7-2.2h0v2.2H122.6z"/>
	<path class="st2" d="M112.1,110.3c0-0.5-0.1-0.6-0.4-0.6c-0.2,0-0.3,0.1-0.3,0.3c0,0.5,1.6,0.9,1.6,2.1c0,0.9-0.5,1.2-1.4,1.2
		c-1.1,0-1.3-0.7-1.3-1.5h0.9v0.2c0,0.3,0.2,0.5,0.4,0.5c0.2,0,0.3-0.1,0.3-0.3c0-0.6-1.6-1-1.6-2.2c0-0.7,0.6-1.1,1.2-1.1
		c0.8,0,1.3,0.5,1.3,1.2v0.2H112.1z"/>
	<path class="st2" d="M113.6,113.3V109h1v3.4h1.3v0.9H113.6z"/>
	<path class="st2" d="M116.2,113.3V109h2.2v0.9h-1.2v0.7h1v0.9h-1v0.8h1.2v0.9H116.2z"/>
	<path class="st2" d="M118.9,113.3V109h2.2v0.9h-1.2v0.7h1v0.9h-1v0.8h1.2v0.9H118.9z"/>
	<path class="st2" d="M121.6,113.3V109h1.1c0.8,0,1.2,0.3,1.2,1.3c0,1-0.3,1.3-1.2,1.3h-0.2v1.7H121.6z M122.5,110.8
		c0.3,0,0.5-0.1,0.5-0.5c0-0.4-0.1-0.5-0.5-0.5V110.8z"/>
</g>
<g>
</g>
<g>
</g>
<g>
</g>
<g>
</g>
<g>
</g>
<g>
</g>
</svg>
