<?xml version="1.0" encoding="utf-8"?>
<!-- Generator: Adobe Illustrator 18.1.1, SVG Export Plug-In . SVG Version: 6.00 Build 0)  -->
<svg version="1.1" id="Layer_1" xmlns="http://www.w3.org/2000/svg" xmlns:xlink="http://www.w3.org/1999/xlink" x="0px" y="0px"
	 viewBox="0 0 612 792" enable-background="new 0 0 612 792" xml:space="preserve">
<rect x="237.7" y="152.4" fill="#EF4044" stroke="#FFFFFF" stroke-width="5" stroke-miterlimit="10" width="137" height="94.4"/>
<rect x="224.1" y="172.7" fill="#EF4044" stroke="#FFFFFF" stroke-width="5" stroke-miterlimit="10" width="13.7" height="55"/>
<rect x="375.3" y="174" fill="#EF4044" stroke="#FFFFFF" stroke-width="5" stroke-miterlimit="10" width="13.7" height="55"/>
<path fill="#EF4044" stroke="#FFFFFF" stroke-width="5" stroke-miterlimit="10" d="M224.1,180.7c0,0-21.7-1.9-21.6,20.9
	c0.3,20.8,21.6,22,21.6,22V180.7z"/>
<path fill="#EF4044" stroke="#FFFFFF" stroke-width="5" stroke-miterlimit="10" d="M389.1,222.9c0,0,21.7,1.9,21.6-20.9
	c-0.3-20.8-21.6-22-21.6-22V222.9z"/>
<path fill="#EF4044" stroke="#FFFFFF" stroke-width="5" stroke-miterlimit="10" d="M337.4,220.2h-62.2c-13.7,0-24.9-11.1-24.9-24.9
	V193c0-13.7,11.1-24.9,24.9-24.9h62.2c13.7,0,24.9,11.1,24.9,24.9v2.3C362.2,209.1,351.1,220.2,337.4,220.2z"/>
<circle fill="#EF4044" stroke="#FFFFFF" stroke-width="5" stroke-miterlimit="10" cx="273.4" cy="194.7" r="13.3"/>
<circle fill="#EF4044" stroke="#FFFFFF" stroke-width="5" stroke-miterlimit="10" cx="337.4" cy="194.5" r="13.3"/>
<path fill="#EF4044" stroke="#FFFFFF" stroke-width="5" stroke-miterlimit="10" d="M278,226.7h53.6c3.8,0,6.6,3,6.6,6.6l0,0
	c0,3.8-3,6.6-6.6,6.6H278c-3.8,0-6.6-3-6.6-6.6l0,0C271.1,229.6,274.4,226.7,278,226.7z"/>
<line fill="#EF4044" stroke="#FFFFFF" stroke-width="5" stroke-miterlimit="10" x1="281.3" y1="226.2" x2="281.3" y2="240.6"/>
<line fill="#EF4044" stroke="#FFFFFF" stroke-width="5" stroke-miterlimit="10" x1="294.2" y1="226.7" x2="294.2" y2="240.6"/>
<line fill="#EF4044" stroke="#FFFFFF" stroke-width="5" stroke-miterlimit="10" x1="306.3" y1="226" x2="306.3" y2="240.7"/>
<line fill="#EF4044" stroke="#FFFFFF" stroke-width="5" stroke-miterlimit="10" x1="317.8" y1="227.3" x2="317.8" y2="239.9"/>
<line fill="#EF4044" stroke="#FFFFFF" stroke-width="5" stroke-miterlimit="10" x1="328.4" y1="227.1" x2="328.4" y2="240.2"/>
<rect x="267.2" y="138.3" fill="#EF4044" stroke="#FFFFFF" stroke-width="5" stroke-miterlimit="10" width="83.5" height="13.7"/>
<rect x="214.1" y="256.6" fill="#EF4044" stroke="#FFFFFF" stroke-width="5" stroke-miterlimit="10" width="184.5" height="143.5"/>
<rect x="272.9" y="246.4" fill="#EF4044" stroke="#FFFFFF" stroke-width="5" stroke-miterlimit="10" width="68.3" height="9.9"/>
<rect x="200.9" y="265" fill="#EF4044" stroke="#FFFFFF" stroke-width="5" stroke-miterlimit="10" width="13.3" height="46"/>
<rect x="398.7" y="264.3" fill="#EF4044" stroke="#FFFFFF" stroke-width="5" stroke-miterlimit="10" width="14.3" height="46.7"/>
<rect x="223.5" y="399.6" fill="#EF4044" stroke="#FFFFFF" stroke-width="5" stroke-miterlimit="10" width="163.7" height="20.8"/>
<rect x="233.5" y="420.7" fill="#EF4044" stroke="#FFFFFF" stroke-width="5" stroke-miterlimit="10" width="36.7" height="19.3"/>
<rect x="224.1" y="440" fill="#EF4044" stroke="#FFFFFF" stroke-width="5" stroke-miterlimit="10" width="55.5" height="50.4"/>
<rect x="187.9" y="604.8" fill="#EF4044" stroke="#FFFFFF" stroke-width="5" stroke-miterlimit="10" width="113" height="16.6"/>
<polygon fill="#EF4044" stroke="#FFFFFF" stroke-width="5" stroke-miterlimit="10" points="217.6,490.1 287.8,490.1 296.1,604.3 
	199.3,604.3 "/>
<circle fill="#EF4044" stroke="#FFFFFF" stroke-width="5" stroke-miterlimit="10" cx="252.1" cy="489.1" r="17.4"/>
<rect x="342.9" y="421.1" fill="#EF4044" stroke="#FFFFFF" stroke-width="5" stroke-miterlimit="10" width="36.7" height="19.3"/>
<rect x="333.6" y="440.4" fill="#EF4044" stroke="#FFFFFF" stroke-width="5" stroke-miterlimit="10" width="55.5" height="50.4"/>
<rect x="306.3" y="604.8" fill="#EF4044" stroke="#FFFFFF" stroke-width="5" stroke-miterlimit="10" width="113" height="16.6"/>
<polygon fill="#EF4044" stroke="#FFFFFF" stroke-width="5" stroke-miterlimit="10" points="328.4,490.5 398.5,490.5 407,604.7 
	310,604.7 "/>
<circle fill="#EF4044" stroke="#FFFFFF" stroke-width="5" stroke-miterlimit="10" cx="361.4" cy="489.6" r="17.4"/>
<circle fill="#FFFFFF" stroke="#EF4044" stroke-width="5" stroke-miterlimit="10" cx="507.7" cy="112.3" r="55.2"/>
<circle fill="#EF4044" stroke="#FFFFFF" stroke-width="5" stroke-miterlimit="10" cx="251.6" cy="367" r="14.5"/>
<circle fill="#EF4044" stroke="#FFFFFF" stroke-width="5" stroke-miterlimit="10" cx="286.3" cy="367.2" r="14.5"/>
<circle fill="#EF4044" stroke="#FFFFFF" stroke-width="5" stroke-miterlimit="10" cx="323.8" cy="367.2" r="14.5"/>
<circle fill="#EF4044" stroke="#FFFFFF" stroke-width="5" stroke-miterlimit="10" cx="360.6" cy="367.2" r="14.5"/>
<rect x="244" y="280.2" fill="#EF4044" stroke="#FFFFFF" stroke-width="5" stroke-miterlimit="10" width="124.8" height="61.1"/>
<path fill="#EF4044" stroke="#FFFFFF" stroke-width="5" stroke-miterlimit="10" d="M200.3,272.1l0.7,35.3c0,0-49.1-7.2-41.4,73.3
	l-29.9,6.6C129.4,387.3,93.9,294.6,200.3,272.1z"/>
<path fill="#EF4044" stroke="#FFFFFF" stroke-width="5" stroke-miterlimit="10" d="M414.1,305.4l-0.7-37.9c0,0,79.1,4.6,70.7-83.5
	l45.6,2.7C529.7,186.7,517.5,281.1,414.1,305.4z"/>
<path fill="#EF4044" stroke="#FFFFFF" stroke-width="5" stroke-miterlimit="10" d="M122.2,435.7c0,0.8-22.1-38.1,18.9-50.8
	c38.6-12.1,47.5,33,47.5,33l-13.9,0.7c0,0-1.2-29.2-28-22c-26.6,7.2-12.1,33.8-12.1,33.8L122.2,435.7z"/>
<path fill="#EF4044" stroke="#FFFFFF" stroke-width="5" stroke-miterlimit="10" d="M476.4,142.3c-0.4-0.8-8,42.1,34.9,40.4
	c40.5-1.6,33.8-45.7,33.8-45.7l-13.3,4c0,0,8.4,27.2-18.9,29.2c-27.4,2-22.7-27-22.7-27L476.4,142.3z"/>
<polygon fill="#EF4044" stroke="#FFFFFF" stroke-width="7.5984" stroke-miterlimit="10" points="537.9,92.9 476.5,92.9 508.4,139.5 
	"/>
<rect x="251.1" y="295.8" fill="none" width="111.9" height="39.5"/>
<text transform="matrix(1 0 0 1 251.071 321.3071)" fill="#FFFFFF" font-family="'InterstateCondBlack'" font-size="35">SCROLL</text>
</svg>
