<svg xmlns="http://www.w3.org/2000/svg" viewBox="0 0 612 792" enable-background="new 0 0 612 792"><style type="text/css">.st0{fill:#2EC0D3;stroke:#CAE98D;stroke-width:7.1131;stroke-miterlimit:10;} .st1{fill:#2EC0D3;stroke:#CAE98D;stroke-width:7;stroke-miterlimit:10;} .st2{fill:#2EC0D3;stroke:#CAE98D;stroke-width:6.2309;stroke-miterlimit:10;} .st3{fill:#2CADBE;stroke:#CAE98D;stroke-width:7;stroke-miterlimit:10;} .st4{fill:#2CADBE;stroke:#CAE98D;stroke-width:5;stroke-miterlimit:10;} .st5{fill:#2CADBE;stroke:#CAE98D;stroke-width:6;stroke-miterlimit:10;} .st6{fill:#2EC0D3;stroke:#CAE98D;stroke-width:5;stroke-miterlimit:10;}</style><path class="st0" d="M473.1 650.9h-346.1c-6.6 0-12-5.4-12-12v-526.4c0-6.6 5.4-12 12-12h346.2c6.6 0 12 5.4 12 12v526.4c-.1 6.6-5.5 12-12.1 12zM153 185.7h295.9v387.6h-295.9z"/><circle class="st1" cx="300.1" cy="616" r="16.5"/><path class="st2" d="M338.9 155.8h-81.8c-1.9 0-3.5-1.6-3.5-3.5v-13.4c0-1.9 1.6-3.5 3.5-3.5h81.8c1.9 0 3.5 1.6 3.5 3.5v13.4c.1 2-1.5 3.5-3.5 3.5z"/><path class="st3" d="M283.6 100.5h189.7c6.6 0 12 5.4 12 12v526.4c0 6.6-5.4 12-12 12h-189.7M283.6 573.3h166.6v-387.6h-166.6"/><path class="st4" d="M283.6 632.5c9.1 0 16.5-7.4 16.5-16.5s-7.4-16.5-16.5-16.5"/><path class="st5" d="M283.6 135.4h55.4c1.9 0 3.5 1.6 3.5 3.5v13.4c0 1.9-1.6 3.5-3.5 3.5h-55.4"/><path class="st6" d="M283.6 599.4c-9.1 0-16.5 7.4-16.5 16.5s7.4 16.5 16.5 16.5"/></svg>