<?xml version="1.0" encoding="utf-8"?>
<!-- Generator: Adobe Illustrator 18.1.1, SVG Export Plug-In . SVG Version: 6.00 Build 0)  -->
<svg version="1.1" id="Layer_1" xmlns="http://www.w3.org/2000/svg" xmlns:xlink="http://www.w3.org/1999/xlink" x="0px" y="0px"
	 viewBox="0 0 108.8 125.4" style="enable-background:new 0 0 108.8 125.4;" xml:space="preserve">
<style type="text/css">
	.st0{fill:#EE3737;stroke:#000000;stroke-width:0.7657;stroke-miterlimit:10;}
	.st1{fill:#EE3737;stroke:#000000;stroke-width:1.4049;stroke-miterlimit:10;}
</style>
<path class="st0" d="M61.3,27.9H35.7c0,0,0.3,7.5-4.5,15.8L30,67c0,0,0.4,3.4,3.7,3.4c3.3,0,3.3-2.7,3.3-2.7v-4.5l-0.1,8.2
	c0,0,0,1.9,3.7,2.1c3.8,0.2,4.4-2.1,4.4-2.1l0.1-6.8l0.1,7.7c0,0,0.8,2.8,3.8,2.8s3.8-2.2,3.8-2.2l0.1-7.9v22c0,0,0.4,3.2,4.3,2.7
	c3-0.4,3.7-2.3,3.7-2.3l-0.5-32.7l7.9,7.6c0,0,1.9,2.4,5.1,0.3c3.1-2.2,0.4-5.5,0.4-5.5L61.3,39.2L61.3,27.9z"/>
<line class="st1" x1="66.6" y1="89.6" x2="78.8" y2="100.7"/>
<line class="st1" x1="58.3" y1="95.2" x2="58.3" y2="109.8"/>
<line class="st1" x1="50.4" y1="91.3" x2="38.2" y2="100.7"/>
<g>
</g>
<g>
</g>
<g>
</g>
<g>
</g>
<g>
</g>
<g>
</g>
</svg>
