<?xml version="1.0" encoding="utf-8"?>
<!-- Generator: Adobe Illustrator 18.1.1, SVG Export Plug-In . SVG Version: 6.00 Build 0)  -->
<svg version="1.1" id="Layer_1" xmlns="http://www.w3.org/2000/svg" xmlns:xlink="http://www.w3.org/1999/xlink" x="0px" y="0px"
	 viewBox="0 0 612 792" style="enable-background:new 0 0 612 792;" xml:space="preserve">
<style type="text/css">
	.st0{fill:#2EC0D3;stroke:#CAE98D;stroke-width:7.1131;stroke-miterlimit:10;}
	.st1{fill:#2EC0D3;stroke:#CAE98D;stroke-width:7;stroke-miterlimit:10;}
	.st2{fill:#2EC0D3;stroke:#CAE98D;stroke-width:6.2309;stroke-miterlimit:10;}
	.st3{fill:#2CADBE;stroke:#CAE98D;stroke-width:7;stroke-miterlimit:10;}
	.st4{fill:#2CADBE;stroke:#CAE98D;stroke-width:5;stroke-miterlimit:10;}
	.st5{fill:#2CADBE;stroke:#CAE98D;stroke-width:6;stroke-miterlimit:10;}
	.st6{fill:#2EC0D3;stroke:#CAE98D;stroke-width:5;stroke-miterlimit:10;}
</style>
<path class="st0" d="M473.1,650.9H127c-6.6,0-12-5.4-12-12V112.5c0-6.6,5.4-12,12-12h346.2c6.6,0,12,5.4,12,12v526.4
	C485.1,645.5,479.7,650.9,473.1,650.9z"/>
<rect x="153" y="185.7" class="st0" width="295.9" height="387.6"/>
<circle class="st1" cx="300.1" cy="616" r="16.5"/>
<path class="st2" d="M338.9,155.8h-81.8c-1.9,0-3.5-1.6-3.5-3.5v-13.4c0-1.9,1.6-3.5,3.5-3.5h81.8c1.9,0,3.5,1.6,3.5,3.5v13.4
	C342.5,154.3,340.9,155.8,338.9,155.8z"/>
<path class="st3" d="M283.6,100.5h189.7c6.6,0,12,5.4,12,12v526.4c0,6.6-5.4,12-12,12H283.6"/>
<polyline class="st3" points="283.6,573.3 450.2,573.3 450.2,185.7 283.6,185.7 "/>
<path class="st4" d="M283.6,632.5c9.1,0,16.5-7.4,16.5-16.5c0-9.1-7.4-16.5-16.5-16.5"/>
<path class="st5" d="M283.6,135.4h55.4c1.9,0,3.5,1.6,3.5,3.5v13.4c0,1.9-1.6,3.5-3.5,3.5h-55.4"/>
<path class="st6" d="M283.6,599.4c-9.1,0-16.5,7.4-16.5,16.5c0,9.1,7.4,16.5,16.5,16.5"/>
</svg>
