<svg xmlns="http://www.w3.org/2000/svg" viewBox="0 0 792 1224" enable-background="new 0 0 792 1224"><style type="text/css">.st0{fill:#818889;stroke:#CAE98D;stroke-width:5;stroke-miterlimit:10;} .st1{fill:#2EC0D3;stroke:#CAE98D;stroke-width:7;stroke-miterlimit:10;} .st2{fill:#444444;stroke:#CAE98D;stroke-width:5;stroke-miterlimit:10;} .st3{fill:#444444;stroke:#CAE98D;stroke-width:4.8875;stroke-miterlimit:10;} .st4{fill:#818889;stroke:#CAE98D;stroke-width:4.6026;stroke-miterlimit:10;}</style><path class="st0" d="M612.2 941.9h-447.8c-8.5 0-15.5-7-15.5-15.5v-681.3c0-8.5 7-15.5 15.5-15.5h448c8.5 0 15.5 7 15.5 15.5v681.2c-.1 8.6-7.1 15.6-15.7 15.6zm-414.2-602.1h382.9v501.6h-382.9v-501.6z"/><circle class="st1" cx="388.4" cy="896.7" r="21.4"/><path class="st2" d="M438.6 301.2h-105.9c-2.5 0-4.5-2.1-4.5-4.5v-17.3c0-2.5 2.1-4.5 4.5-4.5h105.9c2.5 0 4.5 2.1 4.5 4.5v17.3c.1 2.5-1.9 4.5-4.5 4.5z"/><path class="st3" d="M378.7 229.6h234.6c8.2 0 14.8 7 14.8 15.5v681.2c0 8.5-6.7 15.5-14.8 15.5h-234.6m0-100.4h206v-501.6h-206"/><path class="st0" d="M379 918.1c11.8 0 21.4-9.6 21.4-21.4s-9.6-21.4-21.4-21.4"/><path class="st4" d="M379 274.8h60.8c2.1 0 3.8 2.1 3.8 4.5v17.3c0 2.5-1.8 4.5-3.8 4.5h-60.8"/><path class="st3" d="M379 875.2c-11.8 0-21.4 9.6-21.4 21.4s9.6 21.4 21.4 21.4"/></svg>