<?xml version="1.0" encoding="utf-8"?>
<!-- Generator: Adobe Illustrator 18.1.1, SVG Export Plug-In . SVG Version: 6.00 Build 0)  -->
<svg version="1.1" id="Layer_1" xmlns="http://www.w3.org/2000/svg" xmlns:xlink="http://www.w3.org/1999/xlink" x="0px" y="0px"
	 viewBox="0 0 612 792" style="enable-background:new 0 0 612 792;" xml:space="preserve">
<style type="text/css">
	.st0{fill:#2EC0D3;stroke:#CAE98D;stroke-width:7;stroke-miterlimit:10;}
	.st1{fill:#2EC0D3;stroke:#CAE98D;stroke-width:6.2309;stroke-miterlimit:10;}
</style>
<path class="st0" d="M473.3,650.9H138.7c-6.6,0-12-5.4-12-12V112.5c0-6.6,5.4-12,12-12h334.5c6.6,0,12,5.4,12,12v526.4
	C485.3,645.5,479.9,650.9,473.3,650.9z"/>
<rect x="163.6" y="185.7" class="st0" width="286.6" height="387.6"/>
<circle class="st0" cx="300.1" cy="616" r="16.5"/>
<path class="st1" d="M338.9,155.8h-81.8c-1.9,0-3.5-1.6-3.5-3.5v-13.4c0-1.9,1.6-3.5,3.5-3.5h81.8c1.9,0,3.5,1.6,3.5,3.5v13.4
	C342.5,154.3,340.9,155.8,338.9,155.8z"/>
</svg>
