<svg xmlns="http://www.w3.org/2000/svg" viewBox="0 0 792 1224" enable-background="new 0 0 792 1224"><style type="text/css">.st0{fill:#818889;stroke:#CAE98D;stroke-width:5;stroke-miterlimit:10;} .st1{fill:#444444;stroke:#CAE98D;stroke-width:5;stroke-miterlimit:10;} .st2{fill:#CAE98D;}</style><path class="st0" d="M109.5 693v61.6l71 13.5s11 46.6 26.9 60l-40.2 55.3 40.2 45.8 60-38.7s38.7 22.9 63.2 22.9l13.5 69.5h61.6l13.5-69.5s44.3-15 57.7-26.9l57.7 40.2 42.7-49.8-38.7-57.7s15.8-24.5 22.9-56l65.6-11.9v-64.8l-71-12.7s-15-45.8-24.5-48.1l38.7-63.2-46.6-45.8-58 42.2s-29.2-19-52.2-19.8l-13.5-72.7h-63l-11.9 72.6s-34.8 9.4-56 22.9l-53.8-41.9-45 45.8 36.4 52.9s-24.5 46.6-24.5 60l-72.7 14.3z"/><path class="st1" d="M371.5 982h32.9l13.5-69.5s44.3-15 57.7-26.9l57.7 40.2 42.7-49.8-38.7-57.7s15.8-24.5 22.9-56l65.6-11.9v-64.8l-71-12.7s-15-45.8-24.5-48.1c-9.4-2.3 38.7-63.2 38.7-63.2l-46.6-45.8-57.7 41.9s-29.2-19-52.2-19.8l-13.5-72.7h-23.3"/><circle class="st2" cx="365.5" cy="724" r="89.3"/></svg>