<?xml version="1.0" encoding="utf-8"?>
<!-- Generator: Adobe Illustrator 18.1.1, SVG Export Plug-In . SVG Version: 6.00 Build 0)  -->
<svg version="1.1" id="Layer_1" xmlns="http://www.w3.org/2000/svg" xmlns:xlink="http://www.w3.org/1999/xlink" x="0px" y="0px"
	 viewBox="0 0 792 1224" style="enable-background:new 0 0 792 1224;" xml:space="preserve">
<style type="text/css">
	.st0{fill:#818889;stroke:#CAE98D;stroke-width:5;stroke-miterlimit:10;}
	.st1{fill:#444444;stroke:#CAE98D;stroke-width:5;stroke-miterlimit:10;}
	.st2{fill:#CAE98D;}
</style>
<path class="st0" d="M109.5,693v61.6l71,13.5c0,0,11,46.6,26.9,60l-40.2,55.3l40.2,45.8l60-38.7c0,0,38.7,22.9,63.2,22.9l13.5,69.5
	h61.6l13.5-69.5c0,0,44.3-15,57.7-26.9l57.7,40.2l42.7-49.8l-38.7-57.7c0,0,15.8-24.5,22.9-56l65.6-11.9v-64.8l-71-12.7
	c0,0-15-45.8-24.5-48.1l38.7-63.2l-46.6-45.8l-58,42.2c0,0-29.2-19-52.2-19.8l-13.5-72.7H337L325.1,539c0,0-34.8,9.4-56,22.9
	L215.3,520l-45,45.8l36.4,52.9c0,0-24.5,46.6-24.5,60L109.5,693L109.5,693z"/>
<path class="st1" d="M371.5,982h32.9l13.5-69.5c0,0,44.3-15,57.7-26.9l57.7,40.2L576,876l-38.7-57.7c0,0,15.8-24.5,22.9-56
	l65.6-11.9v-64.8l-71-12.7c0,0-15-45.8-24.5-48.1c-9.4-2.3,38.7-63.2,38.7-63.2l-46.6-45.8l-57.7,41.9c0,0-29.2-19-52.2-19.8
	l-13.5-72.7h-23.3"/>
<circle class="st2" cx="365.5" cy="724" r="89.3"/>
</svg>
