<?xml version="1.0" encoding="utf-8"?>
<!-- Generator: Adobe Illustrator 18.1.1, SVG Export Plug-In . SVG Version: 6.00 Build 0)  -->
<svg version="1.1" id="Layer_1" xmlns="http://www.w3.org/2000/svg" xmlns:xlink="http://www.w3.org/1999/xlink" x="0px" y="0px"
	 viewBox="0 111.7 612 477.4" style="enable-background:new 0 111.7 612 477.4;" xml:space="preserve">
<style type="text/css">
	.st0{fill:#2EC0D3;stroke:#CAE98D;stroke-width:5;stroke-miterlimit:10;}
	.st1{fill:#2CADBE;stroke:#CAE98D;stroke-width:5;stroke-miterlimit:10;}
	.st2{fill:#CAE98D;}
</style>
<path class="st0" d="M84.6,326.7v47.6l54.9,10.4c0,0,8.5,36,20.8,46.4l-31.1,42.7l31.1,35.4l46.4-29.9c0,0,29.9,17.7,48.8,17.7
	l10.4,53.7h47.6l10.4-53.7c0,0,34.2-11.6,44.6-20.8l44.6,31.1l33-38.5l-29.9-44.6c0,0,12.2-18.9,17.7-43.3l50.7-9.2v-50.1l-54.9-9.8
	c0,0-11.6-35.4-18.9-37.2s29.9-48.8,29.9-48.8l-36-35.4L359.9,223c0,0-22.6-14.7-40.3-15.3l-10.4-56.2h-48.8l-9.2,56.2
	c0,0-26.9,7.3-43.3,17.7l-41.5-32.4l-34.8,35.4l28.1,40.9c0,0-18.9,36-18.9,46.4L84.6,326.7z"/>
<path class="st1" d="M287.1,550h25.4l10.4-53.7c0,0,34.2-11.6,44.6-20.8l44.6,31.1l33-38.5l-29.9-44.6c0,0,12.2-18.9,17.7-43.3
	l50.7-9.2v-50.1l-54.9-9.8c0,0-11.6-35.4-18.9-37.2c-7.3-1.8,29.9-48.8,29.9-48.8l-36-35.4l-44.6,32.4c0,0-22.6-14.7-40.3-15.3
	l-10.4-56.2h-18"/>
<circle class="st2" cx="282.4" cy="350.6" r="69"/>
</svg>
