<?xml version="1.0" encoding="utf-8"?>
<!-- Generator: Adobe Illustrator 18.1.1, SVG Export Plug-In . SVG Version: 6.00 Build 0)  -->
<svg version="1.1" id="Layer_1" xmlns="http://www.w3.org/2000/svg" xmlns:xlink="http://www.w3.org/1999/xlink" x="0px" y="0px"
	 viewBox="0 0 196.8 236.6" style="enable-background:new 0 0 196.8 236.6;" xml:space="preserve">
<style type="text/css">
	.st0{fill:#EE3737;stroke:#000000;stroke-width:1.09;stroke-miterlimit:10;}
	.st1{fill:#20232D;stroke:#20232D;stroke-width:0.9891;stroke-miterlimit:10;}
</style>
<path class="st0" d="M157.2,157.5H38.8c-6.6,0-12-5.4-12-12V47.8c0-6.6,5.4-12,12-12h118.4c6.6,0,12,5.4,12,12v97.6
	C169.2,152.1,163.8,157.5,157.2,157.5z"/>
<rect x="43.7" y="56.1" class="st1" width="107.5" height="78.6"/>
<path class="st0" d="M81.4,157.5h33.2v0c0,15.8,12.6,28.8,28.4,29.4c2.2,0.1,4.7,0.1,7.3-0.1c3.4-0.2,6.7,1.6,8.2,4.7
	c0.9,1.8,1.2,4,0.1,6.5c-1.5,3.2-4.9,5.2-8.4,5.2c-17.7,0-89.8,0-105.7,0c-2.9,0-5.8-1.4-7.4-3.8c-1.1-1.7-1.7-3.8-0.7-6.4
	c1.4-3.9,5.5-6.1,9.6-5.5c1.5,0.2,3.4,0.4,5.5,0.5C68.3,188.6,82.2,174.4,81.4,157.5L81.4,157.5z"/>
<path class="st0" d="M63.5,90.6v7.8l9,1.7c0,0,1.4,5.9,3.4,7.6l-5.1,7l5.1,5.8l7.6-4.9c0,0,4.9,2.9,8,2.9l1.7,8.8h7.8l1.7-8.8
	c0,0,5.6-1.9,7.3-3.4l7.3,5.1l5.4-6.3l-4.9-7.3c0,0,2-3.1,2.9-7.1l8.3-1.5v-8.2l-9-1.6c0,0-1.9-5.8-3.1-6.1s4.9-8,4.9-8l-5.9-5.8
	l-7.3,5.3c0,0-3.7-2.4-6.6-2.5l-1.7-9.2h-8l-1.5,9.2c0,0-4.4,1.2-7.1,2.9l-6.8-5.3l-5.7,5.8l4.6,6.7c0,0-3.1,5.9-3.1,7.6L63.5,90.6z
	"/>
<circle class="st1" cx="95.9" cy="94.5" r="11.3"/>
<g>
</g>
<g>
</g>
<g>
</g>
<g>
</g>
<g>
</g>
<g>
</g>
</svg>
