<?xml version="1.0" encoding="utf-8"?>
<!-- Generator: Adobe Illustrator 18.1.1, SVG Export Plug-In . SVG Version: 6.00 Build 0)  -->
<svg version="1.1" id="Layer_1" xmlns="http://www.w3.org/2000/svg" xmlns:xlink="http://www.w3.org/1999/xlink" x="0px" y="0px"
	 viewBox="0 0 350.3 224.7" style="enable-background:new 0 0 350.3 224.7;" xml:space="preserve">
<style type="text/css">
	.st0{fill:none;}
	.st1{fill:#F1F2F2;}
</style>
<g>
	<rect x="159.8" y="18.6" class="st0" width="213.4" height="58.8"/>
	<path class="st1" d="M206.1,28.2h-28.9v11.6h26.6v9.5h-26.6v14.1h30.3v9.8h-41.5V18.5h40.1V28.2z"/>
	<path class="st1" d="M231.9,18.5h12.9l19.4,54.7h-12.4L248.2,62h-20.1l-3.7,11.2h-12L231.9,18.5z M231.2,52.5h14L238.3,31
		L231.2,52.5z"/>
	<path class="st1" d="M305.3,18.5v9.7H289v45h-11.5v-45H261v-9.7H305.3z"/>
</g>
<g>
	<g>
		<path class="st1" d="M56.4,85.8c3.8,1.3,6.9,3.6,9.3,6.9c1.9,2.7,3.2,5.7,3.9,8.8c0.7,3.2,1,6.2,1,9.1c0,7.3-1.5,13.4-4.4,18.5
			c-4,6.8-10.1,10.2-18.3,10.2H24.3V84.6h23.6C51.3,84.7,54.1,85.1,56.4,85.8z M35.4,94.1v35.7H46c5.4,0,9.2-2.7,11.3-8
			c1.2-2.9,1.7-6.4,1.7-10.4c0-5.6-0.9-9.8-2.6-12.8c-1.7-3-5.2-4.5-10.4-4.5H35.4z"/>
		<path class="st1" d="M119.7,94.3H90.7v11.6h26.6v9.5H90.7v14.1H121v9.8H79.6V84.6h40.1V94.3z"/>
		<path class="st1" d="M138.2,122.4c0.4,2.5,1,4.4,2.1,5.6c1.9,2.3,5.1,3.4,9.7,3.4c2.8,0,5-0.3,6.7-0.9c3.3-1.1,4.9-3.3,4.9-6.3
			c0-1.8-0.8-3.2-2.4-4.2c-1.6-1-4.1-1.8-7.6-2.6l-5.9-1.3c-5.8-1.3-9.8-2.7-12-4.2c-3.7-2.5-5.5-6.5-5.5-11.8c0-4.9,1.8-9,5.4-12.2
			c3.6-3.2,8.9-4.9,15.9-4.9c5.8,0,10.8,1.5,14.9,4.6c4.1,3.1,6.3,7.5,6.5,13.3h-11c-0.2-3.3-1.7-5.6-4.4-7
			c-1.8-0.9-4.1-1.4-6.8-1.4c-3,0-5.4,0.6-7.2,1.8s-2.7,2.8-2.7,5c0,2,0.9,3.4,2.7,4.4c1.1,0.6,3.6,1.4,7.3,2.3l9.6,2.3
			c4.2,1,7.4,2.3,9.5,4c3.3,2.6,4.9,6.3,4.9,11.2c0,5-1.9,9.1-5.8,12.5s-9.3,5-16.4,5c-7.2,0-12.9-1.6-17-4.9
			c-4.1-3.3-6.2-7.7-6.2-13.4H138.2z"/>
		<path class="st1" d="M191,139.3h-11.4V84.6H191V139.3z"/>
		<path class="st1" d="M238.5,101.7c-0.9-3.7-3-6.3-6.3-7.8c-1.9-0.8-4-1.2-6.3-1.2c-4.4,0-8,1.7-10.9,5s-4.2,8.3-4.2,15
			c0,6.7,1.5,11.5,4.6,14.3c3.1,2.8,6.6,4.2,10.5,4.2c3.8,0,7-1.1,9.4-3.3c2.4-2.2,4-5.1,4.5-8.6h-12.7V110h22.8v29.4h-7.6l-1.2-6.8
			c-2.2,2.6-4.2,4.4-5.9,5.5c-3,1.8-6.7,2.8-11.1,2.8c-7.2,0-13.2-2.5-17.8-7.5c-4.8-5-7.2-11.9-7.2-20.7c0-8.9,2.4-15.9,7.3-21.3
			s11.3-8,19.3-8c7,0,12.5,1.8,16.8,5.3s6.6,7.9,7.3,13.2H238.5z"/>
		<path class="st1" d="M260.7,84.6h12l21.7,38.1V84.6H305v54.7h-11.4l-22.3-38.8v38.8h-10.7V84.6z"/>
	</g>
</g>
<g>
	<g>
		<path class="st1" d="M71.8,187.7c0.4,2.5,1,4.4,2.1,5.6c1.9,2.3,5.1,3.4,9.7,3.4c2.8,0,5-0.3,6.7-0.9c3.3-1.1,4.9-3.3,4.9-6.3
			c0-1.8-0.8-3.2-2.4-4.2c-1.6-1-4.1-1.8-7.6-2.6l-5.9-1.3c-5.8-1.3-9.8-2.7-12-4.2c-3.7-2.5-5.5-6.5-5.5-11.8c0-4.9,1.8-9,5.4-12.2
			c3.6-3.2,8.9-4.9,15.9-4.9c5.8,0,10.8,1.5,14.9,4.6c4.1,3.1,6.3,7.5,6.5,13.3h-11c-0.2-3.3-1.7-5.6-4.4-7
			c-1.8-0.9-4.1-1.4-6.8-1.4c-3,0-5.4,0.6-7.2,1.8c-1.8,1.2-2.7,2.8-2.7,5c0,2,0.9,3.4,2.7,4.4c1.1,0.6,3.6,1.4,7.3,2.3l9.6,2.3
			c4.2,1,7.4,2.3,9.5,4c3.3,2.6,4.9,6.3,4.9,11.2c0,5-1.9,9.1-5.8,12.5s-9.3,5-16.4,5c-7.2,0-12.9-1.6-17-4.9
			c-4.1-3.3-6.2-7.7-6.2-13.4H71.8z"/>
		<path class="st1" d="M114.2,149.9h11.4v44.9H153v9.8h-38.7V149.9z"/>
		<path class="st1" d="M201.1,159.6h-28.9v11.6h26.6v9.5h-26.6v14.1h30.3v9.8H161v-54.7h40.1V159.6z"/>
		<path class="st1" d="M251.8,159.6h-28.9v11.6h26.6v9.5h-26.6v14.1h30.3v9.8h-41.5v-54.7h40.1V159.6z"/>
		<path class="st1" d="M298.7,180.9c-3.2,2.7-7.8,4-13.7,4h-11.4v19.7h-11.4v-54.7h23.5c5.4,0,9.7,1.4,13,4.2
			c3.2,2.8,4.8,7.2,4.8,13.1C303.5,173.7,301.9,178.2,298.7,180.9z M290,161.2c-1.4-1.2-3.5-1.8-6.1-1.8h-10.3v16.1h10.3
			c2.6,0,4.6-0.7,6.1-2c1.4-1.3,2.2-3.4,2.2-6.2C292.2,164.5,291.5,162.4,290,161.2z"/>
	</g>
</g>
<g>
</g>
<g>
</g>
<g>
</g>
<g>
</g>
<g>
</g>
<g>
</g>
</svg>
