<?xml version="1.0" encoding="utf-8"?>
<!-- Generator: Adobe Illustrator 18.1.1, SVG Export Plug-In . SVG Version: 6.00 Build 0)  -->
<svg version="1.1" id="Layer_1" xmlns="http://www.w3.org/2000/svg" xmlns:xlink="http://www.w3.org/1999/xlink" x="0px" y="0px"
	 viewBox="0 0 139.5 111.9" style="enable-background:new 0 0 139.5 111.9;" xml:space="preserve">
<style type="text/css">
	.st0{fill:none;stroke:#F1F2F2;stroke-width:2;stroke-miterlimit:10;}
	.st1{fill:#F1F2F2;}
</style>
<g>
	<path class="st0" d="M35.6,17.7l-0.3,37.9c0,0,5.1,3.6,5.9-4.1c0,0,8.4-1.3,10.2-7.9l0.5,56.7l4.1-0.3l6.6-19.3h36.6l6.9,21.1
		l4.6,0.3l-0.3-48.8l-44-0.8c0,0-0.3-21.4-19.8-28.2l-1.3-7.4L41,25.8L35.6,17.7z"/>
	<g>
		<path class="st1" d="M55.9,26.8c3.2,0.6,6.8,1.6,10.2,3.5c7.3,4.1,11.8,10.9,13.2,20.2l-11.1,0c-0.3-2.3-1.2-6.5-3.1-11
			C62.9,34.1,59.8,29.8,55.9,26.8 M48.9,24.2c-1.5,0-2.4,0.1-2.4,0.1c18.1,4.9,19.8,28.2,19.8,28.2l15.2,0
			C79.1,26.4,56.4,24.2,48.9,24.2L48.9,24.2z"/>
	</g>
	<line class="st0" x1="57.6" y1="30.2" x2="66.7" y2="29.3"/>
	<line class="st0" x1="61.3" y1="34.6" x2="73.2" y2="34.4"/>
	<line class="st0" x1="64.2" y1="40" x2="77.1" y2="40.1"/>
	<line class="st0" x1="65.9" y1="44.2" x2="78.8" y2="44.1"/>
	<line class="st0" x1="66.6" y1="48.8" x2="80.2" y2="48.6"/>
	<polyline class="st0" points="35.2,24.4 14.4,16 35.5,30.8 	"/>
	<circle class="st0" cx="40.1" cy="38.1" r="1.1"/>
	<path class="st0" d="M110.9,53.1l0.1,3.8l4.8,0.1l0.6,10.2c0,0-7.3,11.9,2.4,23.6l0.8-36.1l-1.8-1.5L110.9,53.1z"/>
</g>
<g>
</g>
<g>
</g>
<g>
</g>
<g>
</g>
<g>
</g>
<g>
</g>
</svg>
