<svg xmlns="http://www.w3.org/2000/svg" viewBox="137.5 315.4 928.5 305.6" enable-background="new 137.5 315.4 928.5 305.6"><path fill="#2CADBE" d="M4716.4 222.9"/><path fill="#CAE08F" d="M1027.6 502.6h-851.6c-21.1 0-38.4-7.2-38.4-16v-155.2c0-8.8 17.2-16 38.4-16h851.6c21.1 0 38.4 7.2 38.4 16v155.1c-.1 8.9-17.3 16.1-38.4 16.1z"/><path fill="#fff" d="M221.6 437.2l-14-56.1h7.7l6.7 28.4c1.6 7.1 3.2 14 4.1 19.5h.3c.9-5.5 2.5-12.1 4.5-19.5l7.3-28.2h7.7l6.7 28.4c1.6 6.7 3.2 13.5 3.9 19.2h.3c1.3-6.1 2.9-12.4 4.5-19.5l7.3-28.2h7.3l-16 56.1h-7.7l-7.1-29.1c-1.6-7.1-2.9-12.8-3.5-18.3h-.3c-.9 5.5-2.3 11.2-4.5 18.3l-8 29.1h-7.3l.1-.1zm90.3-26.3h-21.8v20.1h24.3v6.1h-31.6v-56.1h30.4v6.1h-23.1v17.6h21.8v6.2zm11.9-30.1h7.3v49.9h24v6.1h-31.4v-56zm75.3 54.4c-2.5 1.3-8 2.5-14.7 2.5-15.6 0-27.9-9.9-27.9-28.4 0-17.6 11.9-29.5 29.5-29.5 7.1 0 11.5 1.6 13.5 2.5l-1.6 5.7c-2.9-1.3-6.7-2.3-11.2-2.3-13.1 0-21.8 8.3-21.8 23.1 0 13.8 8 22.4 21.5 22.4 4.5 0 8.9-.9 11.9-2.3l.8 6.3zm55.2-26.9c0 19.2-11.9 29.5-25.9 29.5-14.7 0-25.2-11.5-25.2-28.4 0-17.9 11.2-29.5 25.9-29.5 15.3.3 25.2 11.7 25.2 28.4zm-43.5 1c0 11.9 6.4 22.7 17.9 22.7 11.5 0 17.9-10.5 17.9-23.4 0-11.2-5.7-22.7-17.9-22.7-11.8 0-17.9 11.2-17.9 23.4zm100.3 3.2c-.3-7.7-.9-17.2-.9-24.3h-.3c-1.9 6.7-4.1 13.5-7.1 21.5l-9.9 27.2h-5.5l-8.9-26.6c-2.5-8-4.8-15.1-6.4-21.8h-.3c-.3 7.1-.7 16.3-.9 24.7l-1.6 24h-6.7l3.9-56.1h9.3l9.6 27.2c2.3 7.1 4.1 13.1 5.7 18.8h.3c1.3-5.7 3.5-11.9 5.7-18.8l9.9-27.2h9.3l3.5 56.1h-7.1l-1.6-24.7zm48.6-1.6h-21.8v20.1h24.3v6.1h-31.6v-56.1h30.4v6.1h-23.1v17.6h21.8v6.2zm36.8-23.7h-17v-6.1h41.7v6.1h-17.2v49.9h-7.3v-49.9h-.2zm76.5 21.1c0 19.2-11.9 29.5-25.9 29.5-14.7 0-25.2-11.5-25.2-28.4 0-17.9 11.2-29.5 25.9-29.5 15.2.3 25.2 11.7 25.2 28.4zm-43.5 1c0 11.9 6.4 22.7 17.9 22.7s17.9-10.5 17.9-23.4c0-11.2-5.7-22.7-17.9-22.7s-17.9 11.2-17.9 23.4zm117.7 3.2c-.3-7.7-.9-17.2-.9-24.3h-.3c-1.9 6.7-4.1 13.5-7.1 21.5l-9.9 27.2h-5.5l-8.9-26.6c-2.5-8-4.8-15.1-6.4-21.8h-.2c-.3 7.1-.7 16.3-.9 24.7l-1.6 24h-7.1l3.9-56.1h9.3l9.6 27.2c2.3 7.1 4.1 13.1 5.7 18.8h.3c1.3-5.7 3.5-11.9 5.7-18.8l9.9-27.2h9.3l3.5 56.1h-7.1l-1.3-24.7zm31.9 24.7v-23.6l-17.6-32.3h8.3l8 15.4c2.3 4.1 3.9 7.7 5.5 11.5h.3c1.6-3.5 3.5-7.3 5.7-11.5l8-15.4h8.3l-18.7 32.2v24h-7.7v-.3zm49.4-9c3.2 1.9 8 3.5 13.1 3.5 7.3 0 11.9-3.9 11.9-9.6 0-5.1-2.9-8.3-10.5-11.2-9.3-3.2-14.7-8-14.7-16 0-8.7 7.3-15.4 18.3-15.4 5.7 0 9.9 1.3 12.4 2.9l-1.9 5.7c-1.9-.9-5.5-2.5-10.5-2.5-7.7 0-10.5 4.5-10.5 8.3 0 5.1 3.5 7.7 11.2 10.9 9.6 3.5 14.4 8.3 14.4 16.3 0 8.7-6.4 16-19.5 16-5.5 0-11.2-1.6-14.4-3.5l.7-5.4zm49.3-47.4v56.1h-7.3v-56.1h7.3zm22.9 6.4h-17v-6.1h41.7v6.1h-17.2v49.9h-7.3l-.2-49.9zm60 23.7h-21.8v20.1h24.3v6.1h-31.6v-56.1h30.4v6.1h-23.1v17.6h21.8v6.2z"/><path fill="#CAE08F" d="M503.7 501.8h135.7l-152.2 109z"/></svg>