<?xml version="1.0" encoding="utf-8"?>
<!-- Generator: Adobe Illustrator 18.1.1, SVG Export Plug-In . SVG Version: 6.00 Build 0)  -->
<svg version="1.1" id="Layer_1" xmlns="http://www.w3.org/2000/svg" xmlns:xlink="http://www.w3.org/1999/xlink" x="0px" y="0px"
	 viewBox="137.5 315.4 928.5 305.6" enable-background="new 137.5 315.4 928.5 305.6" xml:space="preserve">
<path fill="#2CADBE" d="M4716.4,222.9"/>
<path fill="#CAE08F" d="M1027.6,502.6H176c-21.1,0-38.4-7.2-38.4-16V331.4c0-8.8,17.2-16,38.4-16h851.6c21.1,0,38.4,7.2,38.4,16
	v155.1C1065.9,495.4,1048.7,502.6,1027.6,502.6z"/>
<path fill="#FFFFFF" d="M221.6,437.2l-14-56.1h7.7l6.7,28.4c1.6,7.1,3.2,14,4.1,19.5h0.3c0.9-5.5,2.5-12.1,4.5-19.5l7.3-28.2h7.7
	l6.7,28.4c1.6,6.7,3.2,13.5,3.9,19.2h0.3c1.3-6.1,2.9-12.4,4.5-19.5l7.3-28.2h7.3l-16,56.1h-7.7l-7.1-29.1
	c-1.6-7.1-2.9-12.8-3.5-18.3h-0.3c-0.9,5.5-2.3,11.2-4.5,18.3l-8,29.1h-7.3L221.6,437.2z M311.9,410.9h-21.8V431h24.3v6.1h-31.6
	v-56.1h30.4v6.1h-23.1v17.6h21.8V410.9L311.9,410.9z M323.8,380.8h7.3v49.9h24v6.1h-31.4V380.8z M399.1,435.2
	c-2.5,1.3-8,2.5-14.7,2.5c-15.6,0-27.9-9.9-27.9-28.4c0-17.6,11.9-29.5,29.5-29.5c7.1,0,11.5,1.6,13.5,2.5l-1.6,5.7
	c-2.9-1.3-6.7-2.3-11.2-2.3c-13.1,0-21.8,8.3-21.8,23.1c0,13.8,8,22.4,21.5,22.4c4.5,0,8.9-0.9,11.9-2.3L399.1,435.2L399.1,435.2z
	 M454.3,408.3c0,19.2-11.9,29.5-25.9,29.5c-14.7,0-25.2-11.5-25.2-28.4c0-17.9,11.2-29.5,25.9-29.5
	C444.4,380.2,454.3,391.6,454.3,408.3z M410.8,409.3c0,11.9,6.4,22.7,17.9,22.7c11.5,0,17.9-10.5,17.9-23.4
	c0-11.2-5.7-22.7-17.9-22.7C416.9,385.9,410.8,397.1,410.8,409.3z M511.1,412.5c-0.3-7.7-0.9-17.2-0.9-24.3h-0.3
	c-1.9,6.7-4.1,13.5-7.1,21.5l-9.9,27.2h-5.5l-8.9-26.6c-2.5-8-4.8-15.1-6.4-21.8h-0.3c-0.3,7.1-0.7,16.3-0.9,24.7l-1.6,24h-6.7
	l3.9-56.1h9.3l9.6,27.2c2.3,7.1,4.1,13.1,5.7,18.8h0.3c1.3-5.7,3.5-11.9,5.7-18.8l9.9-27.2h9.3l3.5,56.1h-7.1L511.1,412.5
	L511.1,412.5z M559.7,410.9h-21.8V431h24.3v6.1h-31.6v-56.1H561v6.1h-23.1v17.6h21.8V410.9L559.7,410.9z M596.5,387.2h-17v-6.1h41.7
	v6.1H604v49.9h-7.3v-49.9H596.5z M673,408.3c0,19.2-11.9,29.5-25.9,29.5c-14.7,0-25.2-11.5-25.2-28.4c0-17.9,11.2-29.5,25.9-29.5
	C663,380.2,673,391.6,673,408.3z M629.5,409.3c0,11.9,6.4,22.7,17.9,22.7s17.9-10.5,17.9-23.4c0-11.2-5.7-22.7-17.9-22.7
	C635.2,385.9,629.5,397.1,629.5,409.3z M747.2,412.5c-0.3-7.7-0.9-17.2-0.9-24.3H746c-1.9,6.7-4.1,13.5-7.1,21.5l-9.9,27.2h-5.5
	l-8.9-26.6c-2.5-8-4.8-15.1-6.4-21.8H708c-0.3,7.1-0.7,16.3-0.9,24.7l-1.6,24h-7.1l3.9-56.1h9.3l9.6,27.2c2.3,7.1,4.1,13.1,5.7,18.8
	h0.3c1.3-5.7,3.5-11.9,5.7-18.8l9.9-27.2h9.3l3.5,56.1h-7.1L747.2,412.5L747.2,412.5z M779.1,437.2v-23.6l-17.6-32.3h8.3l8,15.4
	c2.3,4.1,3.9,7.7,5.5,11.5h0.3c1.6-3.5,3.5-7.3,5.7-11.5l8-15.4h8.3l-18.7,32.2v24h-7.7V437.2z M828.5,428.2c3.2,1.9,8,3.5,13.1,3.5
	c7.3,0,11.9-3.9,11.9-9.6c0-5.1-2.9-8.3-10.5-11.2c-9.3-3.2-14.7-8-14.7-16c0-8.7,7.3-15.4,18.3-15.4c5.7,0,9.9,1.3,12.4,2.9
	l-1.9,5.7c-1.9-0.9-5.5-2.5-10.5-2.5c-7.7,0-10.5,4.5-10.5,8.3c0,5.1,3.5,7.7,11.2,10.9c9.6,3.5,14.4,8.3,14.4,16.3
	c0,8.7-6.4,16-19.5,16c-5.5,0-11.2-1.6-14.4-3.5L828.5,428.2L828.5,428.2z M877.8,380.8v56.1h-7.3v-56.1H877.8z M900.7,387.2h-17
	v-6.1h41.7v6.1h-17.2v49.9h-7.3L900.7,387.2L900.7,387.2z M960.7,410.9h-21.8V431h24.3v6.1h-31.6v-56.1H962v6.1h-23.1v17.6h21.8
	V410.9L960.7,410.9z"/>
<polygon fill="#CAE08F" points="503.7,501.8 639.4,501.8 487.2,610.8 "/>
</svg>
