<svg xmlns="http://www.w3.org/2000/svg" viewBox="96.1 192.8 325.1 233.6" enable-background="new 96.1 192.8 325.1 233.6"><style type="text/css">.st0{fill:#2CADBE;} .st1{fill:#FFFFFF;}</style><path class="st0" d="M1504.4 143.6"/><path class="st0" d="M393.6 346.6h-266.1c-6.6 0-12-5.4-12-12v-116.2c0-6.6 5.4-12 12-12h266.1c6.6 0 12 5.4 12 12v116.2c0 6.6-5.4 12-12 12zM223.1 336.1l45.2 66.2 39.9-70.5z"/><path class="st1" d="M141.8 286.3l-4.4-17.5h2.4l2.1 8.9c.5 2.2 1 4.4 1.3 6.1h.1c.3-1.7.8-3.8 1.4-6.1l2.3-8.8h2.4l2.1 8.9c.5 2.1 1 4.2 1.2 6h.1c.4-1.9.9-3.9 1.4-6.1l2.3-8.8h2.3l-5 17.5h-2.4l-2.2-9.1c-.5-2.2-.9-4-1.1-5.7h-.1c-.3 1.7-.7 3.5-1.4 5.7l-2.5 9.1h-2.3zM170 278.1h-6.8v6.3h7.6v1.9h-9.9v-17.5h9.5v1.9h-7.2v5.5h6.8v1.9zM173.7 268.7h2.3v15.6h7.5v1.9h-9.8v-17.5zM197.2 285.7c-.8.4-2.5.8-4.6.8-4.9 0-8.7-3.1-8.7-8.9 0-5.5 3.7-9.2 9.2-9.2 2.2 0 3.6.5 4.2.8l-.5 1.8c-.9-.4-2.1-.7-3.5-.7-4.1 0-6.8 2.6-6.8 7.2 0 4.3 2.5 7 6.7 7 1.4 0 2.8-.3 3.7-.7l.3 1.9zM214.5 277.3c0 6-3.7 9.2-8.1 9.2-4.6 0-7.9-3.6-7.9-8.9 0-5.6 3.5-9.2 8.1-9.2 4.8.1 7.9 3.7 7.9 8.9zm-13.6.3c0 3.7 2 7.1 5.6 7.1 3.6 0 5.6-3.3 5.6-7.3 0-3.5-1.8-7.1-5.6-7.1-3.7 0-5.6 3.5-5.6 7.3zM232.2 278.6c-.1-2.4-.3-5.4-.3-7.6h-.1c-.6 2.1-1.3 4.2-2.2 6.7l-3.1 8.5h-1.7l-2.8-8.3c-.8-2.5-1.5-4.7-2-6.8h-.1c-.1 2.2-.2 5.1-.3 7.7l-.5 7.5h-2.1l1.2-17.5h2.9l3 8.5c.7 2.2 1.3 4.1 1.8 5.9h.1c.4-1.8 1.1-3.7 1.8-5.9l3.1-8.5h2.9l1.1 17.5h-2.2l-.5-7.7zM247.4 278.1h-6.8v6.3h7.6v1.9h-9.9v-17.5h9.5v1.9h-7.2v5.5h6.8v1.9zM258.9 270.7h-5.3v-1.9h13v1.9h-5.4v15.6h-2.3v-15.6zM282.8 277.3c0 6-3.7 9.2-8.1 9.2-4.6 0-7.9-3.6-7.9-8.9 0-5.6 3.5-9.2 8.1-9.2 4.8.1 7.9 3.7 7.9 8.9zm-13.6.3c0 3.7 2 7.1 5.6 7.1 3.6 0 5.6-3.3 5.6-7.3 0-3.5-1.8-7.1-5.6-7.1s-5.6 3.5-5.6 7.3zM306 278.6c-.1-2.4-.3-5.4-.3-7.6h-.1c-.6 2.1-1.3 4.2-2.2 6.7l-3.1 8.5h-1.7l-2.8-8.3c-.8-2.5-1.5-4.7-2-6.8h-.1c-.1 2.2-.2 5.1-.3 7.7l-.5 7.5h-2.2l1.2-17.5h2.9l3 8.5c.7 2.2 1.3 4.1 1.8 5.9h.1c.4-1.8 1.1-3.7 1.8-5.9l3.1-8.5h2.9l1.1 17.5h-2.2l-.4-7.7zM316 286.3v-7.4l-5.5-10.1h2.6l2.5 4.8c.7 1.3 1.2 2.4 1.7 3.6h.1c.5-1.1 1.1-2.3 1.8-3.6l2.5-4.8h2.6l-5.9 10.1v7.5h-2.4zM331.4 283.5c1 .6 2.5 1.1 4.1 1.1 2.3 0 3.7-1.2 3.7-3 0-1.6-.9-2.6-3.3-3.5-2.9-1-4.6-2.5-4.6-5 0-2.7 2.3-4.8 5.7-4.8 1.8 0 3.1.4 3.9.9l-.6 1.8c-.6-.3-1.7-.8-3.3-.8-2.4 0-3.3 1.4-3.3 2.6 0 1.6 1.1 2.4 3.5 3.4 3 1.1 4.5 2.6 4.5 5.1 0 2.7-2 5-6.1 5-1.7 0-3.5-.5-4.5-1.1l.3-1.7zM346.8 268.7v17.5h-2.3v-17.5h2.3zM354 270.7h-5.3v-1.9h13v1.9h-5.4v15.6h-2.3v-15.6zM372.7 278.1h-6.8v6.3h7.6v1.9h-9.9v-17.5h9.5v1.9h-7.2v5.5h6.8v1.9z"/></svg>