<?xml version="1.0" encoding="utf-8"?>
<!-- Generator: Adobe Illustrator 18.1.1, SVG Export Plug-In . SVG Version: 6.00 Build 0)  -->
<svg version="1.1" id="Layer_1" xmlns="http://www.w3.org/2000/svg" xmlns:xlink="http://www.w3.org/1999/xlink" x="0px" y="0px"
	 viewBox="96.1 192.8 325.1 233.6" style="enable-background:new 96.1 192.8 325.1 233.6;" xml:space="preserve">
<style type="text/css">
	.st0{fill:#2CADBE;}
	.st1{fill:#FFFFFF;}
</style>
<path class="st0" d="M1504.4,143.6"/>
<path class="st0" d="M393.6,346.6H127.5c-6.6,0-12-5.4-12-12V218.4c0-6.6,5.4-12,12-12h266.1c6.6,0,12,5.4,12,12v116.2
	C405.6,341.2,400.2,346.6,393.6,346.6z"/>
<polygon class="st0" points="223.1,336.1 268.3,402.3 308.2,331.8 "/>
<g>
	<path class="st1" d="M141.8,286.3l-4.4-17.5h2.4l2.1,8.9c0.5,2.2,1,4.4,1.3,6.1h0.1c0.3-1.7,0.8-3.8,1.4-6.1l2.3-8.8h2.4l2.1,8.9
		c0.5,2.1,1,4.2,1.2,6h0.1c0.4-1.9,0.9-3.9,1.4-6.1l2.3-8.8h2.3l-5,17.5h-2.4l-2.2-9.1c-0.5-2.2-0.9-4-1.1-5.7H148
		c-0.3,1.7-0.7,3.5-1.4,5.7l-2.5,9.1H141.8z"/>
	<path class="st1" d="M170,278.1h-6.8v6.3h7.6v1.9h-9.9v-17.5h9.5v1.9h-7.2v5.5h6.8V278.1z"/>
	<path class="st1" d="M173.7,268.7h2.3v15.6h7.5v1.9h-9.8V268.7z"/>
	<path class="st1" d="M197.2,285.7c-0.8,0.4-2.5,0.8-4.6,0.8c-4.9,0-8.7-3.1-8.7-8.9c0-5.5,3.7-9.2,9.2-9.2c2.2,0,3.6,0.5,4.2,0.8
		l-0.5,1.8c-0.9-0.4-2.1-0.7-3.5-0.7c-4.1,0-6.8,2.6-6.8,7.2c0,4.3,2.5,7,6.7,7c1.4,0,2.8-0.3,3.7-0.7L197.2,285.7z"/>
	<path class="st1" d="M214.5,277.3c0,6-3.7,9.2-8.1,9.2c-4.6,0-7.9-3.6-7.9-8.9c0-5.6,3.5-9.2,8.1-9.2
		C211.4,268.5,214.5,272.1,214.5,277.3z M200.9,277.6c0,3.7,2,7.1,5.6,7.1c3.6,0,5.6-3.3,5.6-7.3c0-3.5-1.8-7.1-5.6-7.1
		C202.8,270.3,200.9,273.8,200.9,277.6z"/>
	<path class="st1" d="M232.2,278.6c-0.1-2.4-0.3-5.4-0.3-7.6h-0.1c-0.6,2.1-1.3,4.2-2.2,6.7l-3.1,8.5h-1.7l-2.8-8.3
		c-0.8-2.5-1.5-4.7-2-6.8h-0.1c-0.1,2.2-0.2,5.1-0.3,7.7l-0.5,7.5H217l1.2-17.5h2.9l3,8.5c0.7,2.2,1.3,4.1,1.8,5.9h0.1
		c0.4-1.8,1.1-3.7,1.8-5.9l3.1-8.5h2.9l1.1,17.5h-2.2L232.2,278.6z"/>
	<path class="st1" d="M247.4,278.1h-6.8v6.3h7.6v1.9h-9.9v-17.5h9.5v1.9h-7.2v5.5h6.8V278.1z"/>
	<path class="st1" d="M258.9,270.7h-5.3v-1.9h13v1.9h-5.4v15.6h-2.3V270.7z"/>
	<path class="st1" d="M282.8,277.3c0,6-3.7,9.2-8.1,9.2c-4.6,0-7.9-3.6-7.9-8.9c0-5.6,3.5-9.2,8.1-9.2
		C279.7,268.5,282.8,272.1,282.8,277.3z M269.2,277.6c0,3.7,2,7.1,5.6,7.1c3.6,0,5.6-3.3,5.6-7.3c0-3.5-1.8-7.1-5.6-7.1
		C271,270.3,269.2,273.8,269.2,277.6z"/>
	<path class="st1" d="M306,278.6c-0.1-2.4-0.3-5.4-0.3-7.6h-0.1c-0.6,2.1-1.3,4.2-2.2,6.7l-3.1,8.5h-1.7l-2.8-8.3
		c-0.8-2.5-1.5-4.7-2-6.8h-0.1c-0.1,2.2-0.2,5.1-0.3,7.7l-0.5,7.5h-2.2l1.2-17.5h2.9l3,8.5c0.7,2.2,1.3,4.1,1.8,5.9h0.1
		c0.4-1.8,1.1-3.7,1.8-5.9l3.1-8.5h2.9l1.1,17.5h-2.2L306,278.6z"/>
	<path class="st1" d="M316,286.3v-7.4l-5.5-10.1h2.6l2.5,4.8c0.7,1.3,1.2,2.4,1.7,3.6h0.1c0.5-1.1,1.1-2.3,1.8-3.6l2.5-4.8h2.6
		l-5.9,10.1v7.5H316z"/>
	<path class="st1" d="M331.4,283.5c1,0.6,2.5,1.1,4.1,1.1c2.3,0,3.7-1.2,3.7-3c0-1.6-0.9-2.6-3.3-3.5c-2.9-1-4.6-2.5-4.6-5
		c0-2.7,2.3-4.8,5.7-4.8c1.8,0,3.1,0.4,3.9,0.9l-0.6,1.8c-0.6-0.3-1.7-0.8-3.3-0.8c-2.4,0-3.3,1.4-3.3,2.6c0,1.6,1.1,2.4,3.5,3.4
		c3,1.1,4.5,2.6,4.5,5.1c0,2.7-2,5-6.1,5c-1.7,0-3.5-0.5-4.5-1.1L331.4,283.5z"/>
	<path class="st1" d="M346.8,268.7v17.5h-2.3v-17.5H346.8z"/>
	<path class="st1" d="M354,270.7h-5.3v-1.9h13v1.9h-5.4v15.6H354V270.7z"/>
	<path class="st1" d="M372.7,278.1h-6.8v6.3h7.6v1.9h-9.9v-17.5h9.5v1.9h-7.2v5.5h6.8V278.1z"/>
</g>
</svg>
